<svg width="30" height="31" viewBox="0 0 30 31" fill="none" xmlns="http://www.w3.org/2000/svg">
<path fill-rule="evenodd" clip-rule="evenodd" d="M9 6.2179C7.13604 6.2179 5.625 7.72893 5.625 9.5929C5.625 11.4569 7.13604 12.9679 9 12.9679C10.864 12.9679 12.375 11.4569 12.375 9.5929C12.375 7.72893 10.864 6.2179 9 6.2179ZM7.875 9.5929C7.875 8.97158 8.37868 8.4679 9 8.4679C9.62132 8.4679 10.125 8.97158 10.125 9.5929C10.125 10.2142 9.62132 10.7179 9 10.7179C8.37868 10.7179 7.875 10.2142 7.875 9.5929Z" fill="#9CA3AF"/>
<path fill-rule="evenodd" clip-rule="evenodd" d="M15 10.7179C13.136 10.7179 11.625 12.2289 11.625 14.0929C11.625 15.9569 13.136 17.4679 15 17.4679C16.864 17.4679 18.375 15.9569 18.375 14.0929C18.375 12.2289 16.864 10.7179 15 10.7179ZM13.875 14.0929C13.875 13.4716 14.3787 12.9679 15 12.9679C15.6213 12.9679 16.125 13.4716 16.125 14.0929C16.125 14.7142 15.6213 15.2179 15 15.2179C14.3787 15.2179 13.875 14.7142 13.875 14.0929Z" fill="#9CA3AF"/>
<path fill-rule="evenodd" clip-rule="evenodd" d="M17.625 9.5929C17.625 7.72893 19.136 6.2179 21 6.2179C22.864 6.2179 24.375 7.72893 24.375 9.5929C24.375 11.4569 22.864 12.9679 21 12.9679C19.136 12.9679 17.625 11.4569 17.625 9.5929ZM21 8.4679C20.3787 8.4679 19.875 8.97158 19.875 9.5929C19.875 10.2142 20.3787 10.7179 21 10.7179C21.6213 10.7179 22.125 10.2142 22.125 9.5929C22.125 8.97158 21.6213 8.4679 21 8.4679Z" fill="#9CA3AF"/>
<path d="M21 13.7179C20.3787 13.7179 19.875 14.2216 19.875 14.8429C19.875 15.4642 20.3787 15.9679 21 15.9679H22.125C23.1605 15.9679 24 16.8074 24 17.8429V20.0929C24 20.7142 24.5037 21.2179 25.125 21.2179C25.7463 21.2179 26.25 20.7142 26.25 20.0929V17.8429C26.25 15.5647 24.4032 13.7179 22.125 13.7179H21Z" fill="#9CA3AF"/>
<path d="M10.125 14.8429C10.125 14.2216 9.62132 13.7179 9 13.7179H7.875C5.59683 13.7179 3.75 15.5647 3.75 17.8429V20.0929C3.75 20.7142 4.25368 21.2179 4.875 21.2179C5.49632 21.2179 6 20.7142 6 20.0929V17.8429C6 16.8074 6.83947 15.9679 7.875 15.9679H9C9.62132 15.9679 10.125 15.4642 10.125 14.8429Z" fill="#9CA3AF"/>
<path d="M16.125 18.2179C18.4031 18.2179 20.25 20.0647 20.25 22.3429V23.8429C20.25 24.4642 19.7463 24.9679 19.125 24.9679C18.5036 24.9679 18 24.4642 18 23.8429V22.3429C18 21.3074 17.1605 20.4679 16.125 20.4679H13.875C12.8394 20.4679 12 21.3073 12 22.3427V23.8429C12 24.4642 11.4963 24.9679 10.875 24.9679C10.2537 24.9679 9.74998 24.4642 9.74998 23.8429V22.3427C9.74998 20.0645 11.5969 18.2179 13.875 18.2179H16.125Z" fill="#9CA3AF"/>
<path fill-rule="evenodd" clip-rule="evenodd" d="M9 6.2179C7.13604 6.2179 5.625 7.72893 5.625 9.5929C5.625 11.4569 7.13604 12.9679 9 12.9679C10.864 12.9679 12.375 11.4569 12.375 9.5929C12.375 7.72893 10.864 6.2179 9 6.2179ZM7.875 9.5929C7.875 8.97158 8.37868 8.4679 9 8.4679C9.62132 8.4679 10.125 8.97158 10.125 9.5929C10.125 10.2142 9.62132 10.7179 9 10.7179C8.37868 10.7179 7.875 10.2142 7.875 9.5929Z" stroke="#F2F7FD" stroke-width="0.5" stroke-linecap="round"/>
<path fill-rule="evenodd" clip-rule="evenodd" d="M15 10.7179C13.136 10.7179 11.625 12.2289 11.625 14.0929C11.625 15.9569 13.136 17.4679 15 17.4679C16.864 17.4679 18.375 15.9569 18.375 14.0929C18.375 12.2289 16.864 10.7179 15 10.7179ZM13.875 14.0929C13.875 13.4716 14.3787 12.9679 15 12.9679C15.6213 12.9679 16.125 13.4716 16.125 14.0929C16.125 14.7142 15.6213 15.2179 15 15.2179C14.3787 15.2179 13.875 14.7142 13.875 14.0929Z" stroke="#F2F7FD" stroke-width="0.5" stroke-linecap="round"/>
<path fill-rule="evenodd" clip-rule="evenodd" d="M17.625 9.5929C17.625 7.72893 19.136 6.2179 21 6.2179C22.864 6.2179 24.375 7.72893 24.375 9.5929C24.375 11.4569 22.864 12.9679 21 12.9679C19.136 12.9679 17.625 11.4569 17.625 9.5929ZM21 8.4679C20.3787 8.4679 19.875 8.97158 19.875 9.5929C19.875 10.2142 20.3787 10.7179 21 10.7179C21.6213 10.7179 22.125 10.2142 22.125 9.5929C22.125 8.97158 21.6213 8.4679 21 8.4679Z" stroke="#F2F7FD" stroke-width="0.5" stroke-linecap="round"/>
<path d="M21 13.7179C20.3787 13.7179 19.875 14.2216 19.875 14.8429C19.875 15.4642 20.3787 15.9679 21 15.9679H22.125C23.1605 15.9679 24 16.8074 24 17.8429V20.0929C24 20.7142 24.5037 21.2179 25.125 21.2179C25.7463 21.2179 26.25 20.7142 26.25 20.0929V17.8429C26.25 15.5647 24.4032 13.7179 22.125 13.7179H21Z" stroke="#F2F7FD" stroke-width="0.5" stroke-linecap="round"/>
<path d="M10.125 14.8429C10.125 14.2216 9.62132 13.7179 9 13.7179H7.875C5.59683 13.7179 3.75 15.5647 3.75 17.8429V20.0929C3.75 20.7142 4.25368 21.2179 4.875 21.2179C5.49632 21.2179 6 20.7142 6 20.0929V17.8429C6 16.8074 6.83947 15.9679 7.875 15.9679H9C9.62132 15.9679 10.125 15.4642 10.125 14.8429Z" stroke="#F2F7FD" stroke-width="0.5" stroke-linecap="round"/>
<path d="M16.125 18.2179C18.4031 18.2179 20.25 20.0647 20.25 22.3429V23.8429C20.25 24.4642 19.7463 24.9679 19.125 24.9679C18.5036 24.9679 18 24.4642 18 23.8429V22.3429C18 21.3074 17.1605 20.4679 16.125 20.4679H13.875C12.8394 20.4679 12 21.3073 12 22.3427V23.8429C12 24.4642 11.4963 24.9679 10.875 24.9679C10.2537 24.9679 9.74998 24.4642 9.74998 23.8429V22.3427C9.74998 20.0645 11.5969 18.2179 13.875 18.2179H16.125Z" stroke="#F2F7FD" stroke-width="0.5" stroke-linecap="round"/>
</svg>
