<?xml version="1.0" standalone="no"?>
<!DOCTYPE svg PUBLIC "-//W3C//DTD SVG 20010904//EN"
 "http://www.w3.org/TR/2001/REC-SVG-20010904/DTD/svg10.dtd">
<svg version="1.0" xmlns="http://www.w3.org/2000/svg"
 width="512.000000pt" height="512.000000pt" viewBox="0 0 512.000000 512.000000"
 preserveAspectRatio="xMidYMid meet">

<g transform="translate(0.000000,512.000000) scale(0.100000,-0.100000)"
fill="#000000" stroke="none">
<path d="M1750 5100 c-19 -19 -20 -33 -20 -344 l0 -325 26 -20 c35 -27 59 -26
89 4 l25 24 0 316 0 316 -25 24 c-29 30 -68 32 -95 5z"/>
<path d="M2260 5100 c-19 -19 -20 -33 -20 -345 0 -312 1 -326 20 -345 25 -25
61 -26 91 -1 l24 19 0 327 0 327 -24 19 c-30 25 -66 24 -91 -1z"/>
<path d="M2769 5101 l-24 -19 0 -327 0 -327 24 -19 c30 -25 66 -24 91 1 19 19
20 33 20 345 0 312 -1 326 -20 345 -25 25 -61 26 -91 1z"/>
<path d="M3275 5095 l-25 -24 0 -316 0 -316 25 -24 c30 -30 54 -31 89 -4 l26
20 0 325 c0 311 -1 325 -20 344 -27 27 -66 25 -95 -5z"/>
<path d="M1312 4149 c-165 -28 -311 -171 -342 -338 -6 -34 -10 -487 -10 -1260
0 -1052 2 -1214 15 -1266 34 -129 113 -225 235 -284 l75 -36 1245 -3 c826 -2
1261 1 1293 8 114 24 225 107 280 208 59 109 57 56 57 1373 0 773 -4 1226 -10
1260 -15 80 -57 157 -119 220 -65 65 -142 104 -232 118 -80 13 -2409 13 -2487
0z m2535 -158 c65 -29 124 -91 149 -157 18 -47 19 -93 19 -1284 l0 -1235 -24
-49 c-30 -61 -82 -113 -140 -140 l-46 -21 -1245 0 -1245 0 -45 21 c-59 28
-117 86 -144 143 l-21 46 0 1245 0 1245 24 45 c46 89 119 144 210 160 25 4
588 7 1251 6 l1205 -1 52 -24z"/>
<path d="M1505 3780 c-65 -25 -130 -90 -164 -160 l-26 -55 0 -995 c0 -791 3
-1004 13 -1040 29 -101 124 -189 226 -210 35 -7 366 -10 1036 -8 l985 3 57 28
c67 33 111 80 147 157 l26 55 0 1005 0 1005 -26 55 c-30 63 -86 122 -144 153
l-40 22 -1020 2 c-990 2 -1021 2 -1070 -17z m2074 -141 c20 -11 45 -32 56 -47
20 -27 20 -45 23 -1028 l2 -1001 -22 -33 c-13 -19 -39 -43 -58 -54 -35 -21
-44 -21 -1020 -21 -976 0 -985 0 -1020 21 -19 11 -45 35 -57 54 l-23 33 0 989
c0 1110 -5 1036 74 1083 l41 25 984 0 c976 0 984 0 1020 -21z"/>
<path d="M2374 3103 c-12 -2 -29 -12 -37 -21 -9 -10 -75 -209 -147 -444 -143
-466 -141 -456 -76 -478 56 -18 72 -3 101 98 15 48 28 93 30 100 3 9 44 12
159 12 179 0 160 11 196 -118 28 -101 46 -115 107 -86 21 11 39 27 41 36 2 9
-52 196 -119 415 -67 219 -126 413 -131 430 -5 18 -17 37 -26 42 -24 12 -73
19 -98 14z m96 -404 c33 -112 60 -207 60 -211 0 -5 -57 -8 -126 -8 -97 0 -125
3 -122 13 3 6 31 103 63 215 32 111 60 200 62 198 2 -2 31 -95 63 -207z"/>
<path d="M2870 3080 c-19 -19 -20 -33 -20 -442 0 -233 3 -433 6 -445 9 -32 64
-49 101 -31 l28 13 3 453 2 452 -26 10 c-40 15 -72 12 -94 -10z"/>
<path d="M20 3370 c-27 -27 -25 -66 5 -95 l24 -25 316 0 316 0 24 25 c30 30
31 54 4 89 l-20 26 -325 0 c-311 0 -325 -1 -344 -20z"/>
<path d="M4411 3364 c-27 -35 -26 -59 4 -89 l24 -25 316 0 316 0 24 25 c30 29
32 68 5 95 -19 19 -33 20 -344 20 l-325 0 -20 -26z"/>
<path d="M20 2860 c-25 -25 -26 -61 -1 -91 l19 -24 327 0 327 0 19 24 c25 30
24 66 -1 91 -19 19 -33 20 -345 20 -312 0 -326 -1 -345 -20z"/>
<path d="M4410 2860 c-25 -25 -26 -61 -1 -91 l19 -24 327 0 327 0 19 24 c25
30 24 66 -1 91 -19 19 -33 20 -345 20 -312 0 -326 -1 -345 -20z"/>
<path d="M43 2370 c-44 -18 -56 -77 -23 -110 19 -19 33 -20 345 -20 312 0 326
1 345 20 25 25 26 61 1 91 l-19 24 -314 2 c-172 1 -323 -2 -335 -7z"/>
<path d="M4433 2370 c-44 -18 -56 -77 -23 -110 19 -19 33 -20 345 -20 312 0
326 1 345 20 25 25 26 61 1 91 l-19 24 -314 2 c-172 1 -323 -2 -335 -7z"/>
<path d="M25 1845 c-30 -29 -32 -68 -5 -95 19 -19 33 -20 344 -20 l325 0 20
26 c27 35 26 59 -4 89 l-24 25 -316 0 -316 0 -24 -25z"/>
<path d="M4415 1845 c-30 -30 -31 -54 -4 -89 l20 -26 325 0 c311 0 325 1 344
20 27 27 25 66 -5 95 l-24 25 -316 0 -316 0 -24 -25z"/>
<path d="M1756 709 l-26 -20 0 -325 c0 -311 1 -325 20 -344 27 -27 66 -25 95
5 l25 24 0 316 0 316 -25 24 c-30 30 -54 31 -89 4z"/>
<path d="M2260 710 c-19 -19 -20 -33 -20 -345 0 -312 1 -326 20 -345 25 -25
61 -26 91 -1 l24 19 0 327 0 327 -24 19 c-30 25 -66 24 -91 -1z"/>
<path d="M2769 711 l-24 -19 0 -327 0 -327 24 -19 c30 -25 66 -24 91 1 19 19
20 33 20 345 0 312 -1 326 -20 345 -25 25 -61 26 -91 1z"/>
<path d="M3275 705 l-25 -24 0 -316 0 -316 25 -24 c29 -30 68 -32 95 -5 19 19
20 33 20 344 l0 325 -26 20 c-35 27 -59 26 -89 -4z"/>
</g>
</svg>
