<svg width="46" height="46" viewBox="0 0 46 46" fill="none" xmlns="http://www.w3.org/2000/svg">
<circle cx="23" cy="23" r="23" fill="#FFE0EB"/>
<g clip-path="url(#clip0_659_1325)">
<path d="M29.6569 13.1428C28.5293 13.1428 27.6152 14.0569 27.6152 15.1845V21.2765H31.1211C31.44 21.2765 31.6986 21.0179 31.6986 20.6989V15.1845C31.6986 14.0569 30.7845 13.1428 29.6569 13.1428V13.1428Z" fill="#FF82AC"/>
<path d="M20.125 27.659C20.125 24.17 22.9632 21.2964 26.4989 21.306V15.4333C26.4989 14.5547 26.8296 13.7521 27.3728 13.1428H17.1859C15.5941 13.1428 14.2988 14.4381 14.2988 16.0299V32.2691C14.2988 32.7887 14.9344 33.044 15.2938 32.6684L16.0327 31.8968L16.8132 32.6777C17.0384 32.9029 17.4042 32.9029 17.6298 32.6777L18.3695 31.9384L19.1165 32.6792C19.3418 32.9025 19.7049 32.9025 19.9301 32.6792L20.689 31.9268L21.4483 32.6792C21.6732 32.9025 22.0359 32.9025 22.2612 32.6796L22.4083 32.5341C20.9762 31.3368 20.125 29.5664 20.125 27.659ZM18.9712 17.8019H20.1111V16.662C20.1111 16.343 20.3697 16.0844 20.6886 16.0844C21.0076 16.0844 21.2662 16.343 21.2662 16.662V17.8019H22.4061C22.7251 17.8019 22.9837 18.0605 22.9837 18.3794C22.9837 18.6984 22.7251 18.957 22.4061 18.957H21.2662V20.0969C21.2662 20.4159 21.0076 20.6744 20.6886 20.6744C20.3697 20.6744 20.1111 20.4159 20.1111 20.0969V18.957H18.9712C18.6522 18.957 18.3936 18.6984 18.3936 18.3794C18.3936 18.0605 18.6522 17.8019 18.9712 17.8019ZM17.2232 21.8468H21.1122C21.4312 21.8468 21.6898 22.1054 21.6898 22.4243C21.6898 22.7433 21.4312 23.0019 21.1122 23.0019H17.2232C16.9042 23.0019 16.6456 22.7433 16.6456 22.4243C16.6456 22.1054 16.9042 21.8468 17.2232 21.8468ZM19.1504 27.6186H17.2194C16.9004 27.6186 16.6418 27.36 16.6418 27.041C16.6418 26.722 16.9004 26.4634 17.2194 26.4634H19.1504C19.4693 26.4634 19.7279 26.722 19.7279 27.041C19.7279 27.36 19.4693 27.6186 19.1504 27.6186ZM19.5354 25.3122H17.2212C16.9023 25.3122 16.6437 25.0536 16.6437 24.7346C16.6437 24.4156 16.9023 24.157 17.2212 24.157H19.5354C19.8544 24.157 20.113 24.4156 20.113 24.7346C20.113 25.0536 19.8544 25.3122 19.5354 25.3122Z" fill="#FF82AC"/>
<path d="M26.4774 22.4609C23.6112 22.4609 21.2793 24.7928 21.2793 27.659C21.2793 30.5253 23.6112 32.8571 26.4774 32.8571C29.3436 32.8571 31.6755 30.5253 31.6755 27.659C31.6755 24.7928 29.3436 22.4609 26.4774 22.4609ZM27.0568 29.8834V29.9383C27.0568 30.2573 26.7982 30.5159 26.4792 30.5159C26.1602 30.5159 25.9016 30.2573 25.9016 29.9383V29.9285C25.6429 29.8669 25.4029 29.765 25.2126 29.6404C24.9456 29.4658 24.8708 29.1078 25.0454 28.8409C25.2201 28.5739 25.578 28.4991 25.845 28.6737C26.0813 28.8284 26.471 28.8871 26.6625 28.797C26.7866 28.7386 26.8827 28.614 26.896 28.4939C26.9246 28.2382 26.524 28.0955 26.2847 28.001C25.9227 27.8581 25.4721 27.6801 25.2106 27.2079C24.8377 26.5349 25.1643 25.6475 25.9016 25.344V25.3149C25.9016 24.9959 26.1602 24.7373 26.4792 24.7373C26.795 24.7373 27.0513 24.9909 27.0563 25.3055C27.2642 25.3705 27.4557 25.4745 27.609 25.6159C27.8435 25.8322 27.8583 26.1975 27.642 26.432C27.4257 26.6665 27.0603 26.6812 26.8259 26.465C26.7309 26.3773 26.438 26.342 26.3108 26.4274C26.2252 26.4849 26.1917 26.5952 26.221 26.6481C26.343 26.8683 26.9818 26.9437 27.4652 27.3205C28.4528 28.09 28.1091 29.4797 27.0568 29.8834Z" fill="#FF82AC"/>
</g>
<defs>
<clipPath id="clip0_659_1325">
<rect width="19.7143" height="19.7143" fill="white" transform="translate(13.1426 13.1428)"/>
</clipPath>
</defs>
</svg>
