<svg width="34" height="35" viewBox="0 0 34 35" fill="none" xmlns="http://www.w3.org/2000/svg">
<g clip-path="url(#clip0_526_2657)">
<path d="M11.3335 24.2904C12.1159 24.2904 12.7501 23.6561 12.7501 22.8737C12.7501 22.0913 12.1159 21.457 11.3335 21.457C10.5511 21.457 9.91681 22.0913 9.91681 22.8737C9.91681 23.6561 10.5511 24.2904 11.3335 24.2904Z" fill="#E5E7EB"/>
<path d="M17.0001 24.2904C17.7825 24.2904 18.4168 23.6561 18.4168 22.8737C18.4168 22.0913 17.7825 21.457 17.0001 21.457C16.2177 21.457 15.5834 22.0913 15.5834 22.8737C15.5834 23.6561 16.2177 24.2904 17.0001 24.2904Z" fill="#E5E7EB"/>
<path d="M17.0001 18.6243C17.7825 18.6243 18.4168 17.9901 18.4168 17.2077C18.4168 16.4253 17.7825 15.791 17.0001 15.791C16.2177 15.791 15.5834 16.4253 15.5834 17.2077C15.5834 17.9901 16.2177 18.6243 17.0001 18.6243Z" fill="#E5E7EB"/>
<path d="M22.6668 12.9564C23.4492 12.9564 24.0835 12.3221 24.0835 11.5397C24.0835 10.7573 23.4492 10.123 22.6668 10.123C21.8844 10.123 21.2501 10.7573 21.2501 11.5397C21.2501 12.3221 21.8844 12.9564 22.6668 12.9564Z" fill="#E5E7EB"/>
<path d="M22.6668 24.2904C23.4492 24.2904 24.0835 23.6561 24.0835 22.8737C24.0835 22.0913 23.4492 21.457 22.6668 21.457C21.8844 21.457 21.2501 22.0913 21.2501 22.8737C21.2501 23.6561 21.8844 24.2904 22.6668 24.2904Z" fill="#E5E7EB"/>
<path d="M22.6668 18.6243C23.4492 18.6243 24.0835 17.9901 24.0835 17.2077C24.0835 16.4253 23.4492 15.791 22.6668 15.791C21.8844 15.791 21.2501 16.4253 21.2501 17.2077C21.2501 17.9901 21.8844 18.6243 22.6668 18.6243Z" fill="#E5E7EB"/>
</g>
<defs>
<clipPath id="clip0_526_2657">
<rect width="34" height="34" fill="white" transform="translate(0.00012207 0.207031)"/>
</clipPath>
</defs>
</svg>
