<svg width="30" height="31" viewBox="0 0 30 31" fill="none" xmlns="http://www.w3.org/2000/svg">
<path d="M21.8911 25.0898H18.6004C17.6917 25.0898 16.9551 24.3532 16.9551 23.4445V19.3311C16.9551 18.8768 16.5868 18.5084 16.1324 18.5084H14.4871C14.0327 18.5084 13.6644 18.8768 13.6644 19.3311V23.4445C13.6644 24.3532 12.9278 25.0898 12.0191 25.0898H8.72837C6.91097 25.0898 5.43768 23.6165 5.43768 21.7991V14.7943C5.43768 13.4852 5.95773 12.2297 6.88341 11.304L12.9829 5.20454C14.268 3.91945 16.3515 3.91945 17.6366 5.20454L23.7361 11.304C24.6618 12.2297 25.1818 13.4852 25.1818 14.7943V21.7991C25.1818 23.6165 23.7085 25.0898 21.8911 25.0898Z" fill="#134DF4"/>
</svg>
