<svg width="22" height="22" viewBox="0 0 22 22" fill="none" xmlns="http://www.w3.org/2000/svg">
<path fill-rule="evenodd" clip-rule="evenodd" d="M5.60894 19.0051C4.28566 19.0051 3.21292 17.9323 3.21292 16.609V5.82693C3.21292 4.50364 4.28566 3.43091 5.60894 3.43091H16.3911C17.7143 3.43091 18.7871 4.50364 18.7871 5.82693V16.609C18.7871 17.9323 17.7143 19.0051 16.391 19.0051H5.60894ZM9.50248 5.22793H12.4975V7.62395H9.50248V5.22793ZM7.70546 5.22793H5.60894C5.27812 5.22793 5.00994 5.49611 5.00994 5.82693V7.62395H7.70546V5.22793ZM7.70546 9.42097H5.00994V16.609C5.00994 16.9399 5.27812 17.208 5.60894 17.208H7.70546V9.42097ZM9.50248 17.208V9.42097H12.4975V17.208H9.50248ZM14.2945 7.62395V5.22793H16.3911C16.7219 5.22793 16.9901 5.49611 16.9901 5.82693V7.62395H14.2945ZM14.2945 9.42097V17.208H16.391C16.7219 17.208 16.9901 16.9399 16.9901 16.609V9.42097H14.2945Z" fill="#9CA3AF" stroke="#F2F7FD" stroke-width="0.4" stroke-linecap="round"/>
</svg>
