<svg width="15" height="16" viewBox="0 0 15 16" fill="none" xmlns="http://www.w3.org/2000/svg">
<path fill-rule="evenodd" clip-rule="evenodd" d="M9.34871 7.43113C9.34871 8.63992 8.36879 9.61984 7.16 9.61984C5.95121 9.61984 4.97129 8.63992 4.97129 7.43113C4.97129 6.22234 5.95121 5.24242 7.16 5.24242C8.36879 5.24242 9.34871 6.22234 9.34871 7.43113ZM8.25436 7.43113C8.25436 8.03552 7.7644 8.52548 7.16 8.52548C6.55561 8.52548 6.06565 8.03552 6.06565 7.43113C6.06565 6.82673 6.55561 6.33677 7.16 6.33677C7.7644 6.33677 8.25436 6.82673 8.25436 7.43113Z" fill="#6B7280"/>
<path fill-rule="evenodd" clip-rule="evenodd" d="M7.16 3.05371C5.35325 3.05371 3.98749 3.95091 3.09093 4.9011C2.64213 5.37675 2.30119 5.87499 2.07001 6.30355C1.95444 6.51779 1.86313 6.72046 1.79931 6.89978C1.74035 7.06542 1.68823 7.25617 1.68823 7.43113C1.68823 7.60608 1.74035 7.79683 1.79931 7.96248C1.86313 8.14179 1.95444 8.34447 2.07001 8.5587C2.30119 8.98727 2.64213 9.4855 3.09093 9.96115C3.98749 10.9113 5.35325 11.8085 7.16 11.8085C8.96676 11.8085 10.3325 10.9113 11.2291 9.96115C11.6779 9.4855 12.0188 8.98727 12.25 8.5587C12.3656 8.34447 12.4569 8.14179 12.5207 7.96248C12.5797 7.79683 12.6318 7.60608 12.6318 7.43113C12.6318 7.25617 12.5797 7.06542 12.5207 6.89978C12.4569 6.72046 12.3656 6.51779 12.25 6.30355C12.0188 5.87499 11.6779 5.37675 11.2291 4.9011C10.3325 3.95091 8.96676 3.05371 7.16 3.05371ZM2.78362 7.43264L2.78334 7.43113L2.78362 7.42962C2.7863 7.41517 2.79592 7.36334 2.8303 7.26675C2.8721 7.14932 2.93887 6.9979 3.03316 6.82312C3.22167 6.47367 3.50748 6.05425 3.8869 5.65214C4.64678 4.8468 5.74332 4.14807 7.16 4.14807C8.57669 4.14807 9.67323 4.8468 10.4331 5.65214C10.8125 6.05425 11.0983 6.47367 11.2868 6.82312C11.3811 6.9979 11.4479 7.14932 11.4897 7.26675C11.5241 7.36334 11.5337 7.41517 11.5364 7.42962L11.5367 7.43113L11.5364 7.43264C11.5337 7.44709 11.5241 7.49892 11.4897 7.5955C11.4479 7.71293 11.3811 7.86436 11.2868 8.03913C11.0983 8.38858 10.8125 8.80801 10.4331 9.21012C9.67323 10.0155 8.57669 10.7142 7.16 10.7142C5.74332 10.7142 4.64678 10.0155 3.8869 9.21012C3.50748 8.80801 3.22167 8.38858 3.03316 8.03913C2.93887 7.86436 2.8721 7.71293 2.8303 7.5955C2.79592 7.49892 2.7863 7.44709 2.78362 7.43264Z" fill="#6B7280"/>
</svg>
