<svg width="44" height="44" viewBox="0 0 44 44" fill="none" xmlns="http://www.w3.org/2000/svg">
<circle cx="22" cy="22" r="22" fill="#DCFAF8"/>
<g clip-path="url(#clip0_659_1336)">
<path d="M30.1608 21.6013H29.0392C28.7839 20.8871 28.3725 20.2476 27.846 19.7249L29.5757 18.9613C29.8228 18.8522 29.9581 18.5796 29.8879 18.3188C29.6792 17.5448 28.9752 16.9753 28.1387 16.9753H26.7121C25.8917 16.9753 25.199 17.5233 24.9758 18.2746H23.4691C22.9032 20.365 20.9917 21.9073 18.7268 21.9073C17.3442 21.9073 16.0934 21.3325 15.1998 20.4093C14.9482 20.7684 14.742 21.162 14.5901 21.5817C14.1388 21.483 13.7678 21.126 13.664 20.6612C13.5976 20.3633 13.3021 20.1756 13.0045 20.2423C12.7067 20.3088 12.5192 20.6041 12.5857 20.9018C12.6987 21.4082 12.983 21.8679 13.3864 22.1962C13.6624 22.421 13.987 22.5774 14.3309 22.6559C14.3041 22.8664 14.2903 23.081 14.2903 23.2989V23.8345C14.2903 25.8648 15.489 27.6135 17.214 28.406V29.6235C17.214 30.2861 17.7512 30.8232 18.4138 30.8232C19.0764 30.8232 19.6136 30.2861 19.6136 29.6235V28.8587H24.1081V29.6235C24.1081 30.2861 24.6453 30.8232 25.3079 30.8232C25.9705 30.8232 26.5077 30.2861 26.5077 29.6235V28.3592C27.769 27.7456 28.7349 26.6155 29.133 25.2422H30.1607C30.8614 25.2422 31.4295 24.6715 31.4295 23.9675V22.8759C31.4295 22.172 30.8615 21.6013 30.1608 21.6013ZM26.0843 21.9202C25.7803 21.9202 25.5338 21.6738 25.5338 21.3698C25.5338 21.0657 25.7803 20.8193 26.0843 20.8193C26.3883 20.8193 26.6348 21.0657 26.6348 21.3698C26.6348 21.6738 26.3883 21.9202 26.0843 21.9202Z" fill="#16DBCC"/>
<path d="M18.7259 13.177C16.6262 13.177 14.918 14.8873 14.918 16.9896C14.918 19.0919 16.6262 20.8022 18.7259 20.8022C20.8256 20.8022 22.5338 19.0919 22.5338 16.9896C22.5338 14.8873 20.8255 13.177 18.7259 13.177ZM18.3723 16.407H19.0795C19.8773 16.407 20.5263 17.0565 20.5263 17.8548C20.5263 18.5855 19.9823 19.1912 19.2784 19.2885V19.496C19.2784 19.8011 19.031 20.0485 18.7259 20.0485C18.4208 20.0485 18.1735 19.8011 18.1735 19.496V19.3025H18.0325C17.4222 19.3025 16.9255 18.8057 16.9255 18.1949C16.9255 17.8898 17.1729 17.6425 17.478 17.6425C17.7831 17.6425 18.0304 17.8898 18.0304 18.1949L19.0795 18.1976C19.268 18.1976 19.4213 18.0438 19.4213 17.8548C19.4213 17.6658 19.268 17.512 19.0795 17.512H18.3723C17.5745 17.512 16.9255 16.8625 16.9255 16.0642C16.9255 15.3335 17.4695 14.7278 18.1735 14.6305V14.4832C18.1735 14.1781 18.4208 13.9307 18.7259 13.9307C19.031 13.9307 19.2784 14.1781 19.2784 14.4832V14.6164H19.4193C20.0296 14.6164 20.5263 15.1133 20.5263 15.7241C20.5263 16.0292 20.2789 16.2765 19.9738 16.2765C19.6687 16.2765 19.4213 16.0292 19.4213 15.7241C19.4213 15.7232 19.4213 15.7228 19.4213 15.7228L18.3723 15.7214C18.1838 15.7214 18.0305 15.8752 18.0305 16.0642C18.0305 16.2532 18.1838 16.407 18.3723 16.407Z" fill="#16DBCC"/>
</g>
<defs>
<clipPath id="clip0_659_1336">
<rect width="18.8571" height="18.8571" fill="white" transform="translate(12.5723 12.5715)"/>
</clipPath>
</defs>
</svg>
