<svg width="51" height="51" viewBox="0 0 51 51" fill="none" xmlns="http://www.w3.org/2000/svg">
<path d="M40.4607 20.2761C40.4607 25.6857 37.7979 29.8478 33.7469 32.5883C32.8034 33.2257 32.3316 33.5444 32.0989 33.9092C31.8682 34.2699 31.7865 34.7479 31.6292 35.6998L31.5034 36.44C31.2266 38.1132 31.0861 38.9498 30.499 39.4467C29.912 39.9437 29.0649 39.9437 27.3686 39.9437H21.8919C20.1956 39.9437 19.3485 39.9437 18.7614 39.4467C18.1743 38.9498 18.0359 38.1132 17.755 36.44L17.6334 35.6998C17.474 34.75 17.3964 34.2741 17.1658 33.9134C16.9351 33.5528 16.4613 33.2299 15.5156 32.5841C11.5087 29.8436 9.0094 25.6836 9.0094 20.2761C9.0094 11.4551 16.0503 4.29884 24.7351 4.29884C25.7916 4.29772 26.8454 4.40451 27.8802 4.61754" stroke="#15C0E8" stroke-width="2.5" stroke-linecap="round" stroke-linejoin="round"/>
<path d="M28.9286 39.9437V42.0404C28.9286 44.0177 28.9286 45.0052 28.3142 45.6196C27.6999 46.2339 26.7123 46.2339 24.735 46.2339C22.7578 46.2339 21.7702 46.2339 21.1559 45.6196C20.5415 45.0052 20.5415 44.0177 20.5415 42.0404V39.9437M35.2188 4.29883L35.7598 5.76027C36.4685 7.6767 36.8228 8.63492 37.5211 9.33314C38.2214 10.0335 39.1796 10.3878 41.096 11.0965L42.5575 11.6375L41.096 12.1784C39.1796 12.8871 38.2214 13.2415 37.5232 13.9397C36.8228 14.64 36.4685 15.5982 35.7598 17.5147L35.2188 18.9761L34.6779 17.5147C33.9692 15.5982 33.6148 14.64 32.9166 13.9418C32.2163 13.2415 31.2581 12.8871 29.3416 12.1784L27.8802 11.6375L29.3416 11.0965C31.2581 10.3878 32.2163 10.0335 32.9145 9.33523C33.6148 8.63492 33.9692 7.6767 34.6779 5.76027L35.2188 4.29883Z" stroke="#15C0E8" stroke-width="2.5" stroke-linecap="round" stroke-linejoin="round"/>
</svg>
