<svg width="52" height="52" viewBox="0 0 52 52" fill="none" xmlns="http://www.w3.org/2000/svg">
<path d="M34.3373 12.9387C34.3373 8.93452 34.3373 6.93456 33.0932 5.69043C31.849 4.44629 29.8491 4.44629 25.8449 4.44629C21.8407 4.44629 19.8408 4.44629 18.5966 5.69043C17.3525 6.93456 17.3525 8.93452 17.3525 12.9387M4.61388 29.9235C4.61388 21.9173 4.61388 17.9131 7.10215 15.427C9.59043 12.9408 13.5925 12.9387 21.5987 12.9387H30.0911C38.0973 12.9387 42.1015 12.9387 44.5876 15.427C47.0738 17.9152 47.0759 21.9173 47.0759 29.9235C47.0759 37.9297 47.0759 41.9339 44.5876 44.42C42.0993 46.9062 38.0973 46.9083 30.0911 46.9083H21.5987C13.5925 46.9083 9.5883 46.9083 7.10215 44.42C4.616 41.9318 4.61388 37.9297 4.61388 29.9235Z" stroke="#15C0E8" stroke-width="2.49897"/>
<path d="M25.8449 36.9994C28.1909 36.9994 30.0911 35.4155 30.0911 33.4623C30.0911 31.509 28.1909 29.9231 25.8449 29.9231C23.4989 29.9231 21.5987 28.3392 21.5987 26.3839C21.5987 24.4306 23.4989 22.8468 25.8449 22.8468M25.8449 36.9994C23.4989 36.9994 21.5987 35.4155 21.5987 33.4623M25.8449 36.9994V38.4155M25.8449 22.8468V21.4307M25.8449 22.8468C28.1909 22.8468 30.0911 24.4306 30.0911 26.3839" stroke="#15C0E8" stroke-width="2.49897" stroke-linecap="round"/>
</svg>
