<svg width="43" height="44" viewBox="0 0 43 44" fill="none" xmlns="http://www.w3.org/2000/svg">
<path d="M21.2866 42.0419C32.3564 42.0419 41.3303 33.0681 41.3303 21.9983C41.3303 10.9284 32.3564 1.95459 21.2866 1.95459C10.2168 1.95459 1.2429 10.9284 1.2429 21.9983C1.2429 33.0681 10.2168 42.0419 21.2866 42.0419Z" stroke="#15C0E8" stroke-width="2.03515"/>
<path d="M21.2866 30.0159C25.7145 30.0159 29.304 26.4264 29.304 21.9984C29.304 17.5705 25.7145 13.981 21.2866 13.981C16.8586 13.981 13.2691 17.5705 13.2691 21.9984C13.2691 26.4264 16.8586 30.0159 21.2866 30.0159Z" stroke="#15C0E8" stroke-width="2.03515"/>
<path d="M27.2997 15.9852L35.3172 7.96777M7.25601 36.0289L15.2735 28.0114M15.2735 15.9852L7.25601 7.96777M35.3172 36.0289L27.2997 28.0114" stroke="#15C0E8" stroke-width="2.03515"/>
</svg>
