<svg width="24" height="24" viewBox="0 0 24 24" fill="none" xmlns="http://www.w3.org/2000/svg">
<path fill-rule="evenodd" clip-rule="evenodd" d="M9.93668 4.92199C8.63238 4.92199 7.57503 5.97934 7.57503 7.28364C7.57503 8.58795 8.63238 9.64529 9.93668 9.64529C11.241 9.64529 12.2983 8.58795 12.2983 7.28364C12.2983 5.97934 11.241 4.92199 9.93668 4.92199ZM5.8038 7.28364C5.8038 5.00111 7.65415 3.15076 9.93668 3.15076C12.2192 3.15076 14.0696 5.00111 14.0696 7.28364C14.0696 9.56617 12.2192 11.4165 9.93668 11.4165C7.65415 11.4165 5.8038 9.56617 5.8038 7.28364Z" fill="#9CA3AF"/>
<path fill-rule="evenodd" clip-rule="evenodd" d="M9.93668 14.3686C7.88966 14.3686 6.00355 15.4784 5.00943 17.2678L4.65206 17.9111H12.2509C12.74 17.9111 13.1366 18.3076 13.1366 18.7967C13.1366 19.2858 12.74 19.6823 12.2509 19.6823H4.32621C3.12186 19.6823 2.36059 18.3885 2.94547 17.3357L3.46109 16.4076C4.7676 14.0559 7.24641 12.5974 9.93668 12.5974V13.483C9.93668 12.5974 9.93668 12.5974 9.93668 12.5974L9.93944 12.5974L9.94371 12.5974L9.95668 12.5975L9.99955 12.5981C10.0353 12.5988 10.0852 12.6002 10.1466 12.6028C10.2689 12.608 10.4394 12.6184 10.6361 12.6391C11.0153 12.6791 11.5515 12.7634 12.0345 12.955C12.4891 13.1353 12.7115 13.6501 12.5311 14.1047C12.3508 14.5594 11.836 14.7817 11.3814 14.6014C11.1201 14.4978 10.7707 14.4344 10.4503 14.4006C10.2973 14.3845 10.1644 14.3764 10.071 14.3724C10.0244 14.3704 9.9883 14.3695 9.96498 14.369L9.94011 14.3686L9.93668 14.3686Z" fill="#9CA3AF"/>
<path fill-rule="evenodd" clip-rule="evenodd" d="M13.7744 13.483C13.7744 12.9939 14.1709 12.5974 14.66 12.5974H19.9737C20.4628 12.5974 20.8593 12.9939 20.8593 13.483C20.8593 13.9721 20.4628 14.3686 19.9737 14.3686H14.66C14.1709 14.3686 13.7744 13.9721 13.7744 13.483Z" fill="#9CA3AF"/>
<path fill-rule="evenodd" clip-rule="evenodd" d="M14.6617 16.1398C14.6617 15.6507 15.0582 15.2542 15.5473 15.2542H19.0898C19.5789 15.2542 19.9754 15.6507 19.9754 16.1398C19.9754 16.6289 19.5789 17.0254 19.0898 17.0254H15.5473C15.0582 17.0254 14.6617 16.6289 14.6617 16.1398Z" fill="#9CA3AF"/>
<path fill-rule="evenodd" clip-rule="evenodd" d="M15.5456 18.7967C15.5456 18.3076 15.9421 17.9111 16.4312 17.9111H18.2025C18.6916 17.9111 19.0881 18.3076 19.0881 18.7967C19.0881 19.2858 18.6916 19.6823 18.2025 19.6823H16.4312C15.9421 19.6823 15.5456 19.2858 15.5456 18.7967Z" fill="#9CA3AF"/>
</svg>
