<svg width="28" height="28" viewBox="0 0 28 28" fill="none" xmlns="http://www.w3.org/2000/svg">
<path fill-rule="evenodd" clip-rule="evenodd" d="M25.1575 13.0611C25.2524 13.8164 24.6265 14.4358 23.8654 14.4358C23.8654 19.7639 19.546 24.0833 14.2179 24.0833C8.88974 24.0833 4.57042 19.7639 4.57042 14.4358C4.57042 9.10764 8.88974 4.78832 14.2179 4.78832V6.85563C10.0315 6.85563 6.63773 10.2494 6.63773 14.4358C6.63773 18.6222 10.0315 22.0159 14.2179 22.0159C18.4043 22.0159 21.798 18.6222 21.798 14.4358L18.3525 14.4358C18.3525 14.4358 18.3525 14.4358 18.3525 14.4358C18.3525 16.7193 16.5014 18.5704 14.2179 18.5704C11.9344 18.5704 10.0833 16.7193 10.0833 14.4358C10.0833 12.1523 11.9344 10.3012 14.2179 10.3012L14.2179 4.78832C14.2179 4.02715 14.8373 3.40122 15.5925 3.49612C16.5681 3.61871 17.525 3.87151 18.4372 4.24937C19.7749 4.80346 20.9904 5.61561 22.0142 6.63944C23.0381 7.66327 23.8502 8.87873 24.4043 10.2164C24.7822 11.1287 25.035 12.0855 25.1575 13.0611ZM22.9345 12.3685C22.8245 11.9049 22.6775 11.4498 22.4943 11.0076C22.0441 9.92068 21.3843 8.93311 20.5524 8.10125C19.7206 7.26939 18.733 6.60952 17.6461 6.15932C17.2039 5.97615 16.7488 5.82915 16.2852 5.7192V10.6968C16.6345 10.8899 16.9557 11.1314 17.239 11.4147C17.5223 11.698 17.7638 12.0192 17.9569 12.3685H22.9345ZM14.2179 16.5031C13.0761 16.5031 12.1506 15.5775 12.1506 14.4358C12.1506 13.294 13.0761 12.3685 14.2179 12.3685C15.3596 12.3685 16.2852 13.294 16.2852 14.4358C16.2852 15.5775 15.3596 16.5031 14.2179 16.5031Z" fill="#9CA3AF"/>
<path d="M14.2179 4.78832C8.88974 4.78832 4.57042 9.10764 4.57042 14.4358C4.57042 19.7639 8.88974 24.0833 14.2179 24.0833C19.546 24.0833 23.8654 19.7639 23.8654 14.4358C24.6265 14.4358 25.2524 13.8164 25.1575 13.0611C25.035 12.0855 24.7822 11.1287 24.4043 10.2164C23.8502 8.87873 23.0381 7.66327 22.0142 6.63944C20.9904 5.61561 19.7749 4.80346 18.4372 4.24937C17.525 3.87151 16.5681 3.61871 15.5925 3.49612C14.8373 3.40122 14.2179 4.02715 14.2179 4.78832ZM14.2179 4.78832V6.85563C10.0315 6.85563 6.63773 10.2494 6.63773 14.4358C6.63773 18.6222 10.0315 22.0159 14.2179 22.0159C18.4043 22.0159 21.798 18.6222 21.798 14.4358L18.3525 14.4358M14.2179 4.78832L14.2179 10.3012C11.9344 10.3012 10.0833 12.1523 10.0833 14.4358C10.0833 16.7193 11.9344 18.5704 14.2179 18.5704C16.5014 18.5704 18.3525 16.7193 18.3525 14.4358M18.3525 14.4358C18.3525 14.4358 18.3525 14.4358 18.3525 14.4358ZM22.4943 11.0076C22.6775 11.4498 22.8245 11.9049 22.9345 12.3685H17.9569C17.7638 12.0192 17.5223 11.698 17.239 11.4147C16.9557 11.1314 16.6345 10.8899 16.2852 10.6968V5.7192C16.7488 5.82915 17.2039 5.97615 17.6461 6.15932C18.733 6.60952 19.7206 7.26939 20.5524 8.10125C21.3843 8.93311 22.0441 9.92068 22.4943 11.0076ZM12.1506 14.4358C12.1506 15.5775 13.0761 16.5031 14.2179 16.5031C15.3596 16.5031 16.2852 15.5775 16.2852 14.4358C16.2852 13.294 15.3596 12.3685 14.2179 12.3685C13.0761 12.3685 12.1506 13.294 12.1506 14.4358Z" stroke="#F2F7FD" stroke-width="0.5"/>
</svg>
