<svg width="44" height="45" viewBox="0 0 44 45" fill="none" xmlns="http://www.w3.org/2000/svg">
<path d="M19.6724 44.5023C19.1786 44.436 18.6847 44.3517 18.1969 44.2553C18.0223 44.2192 17.8476 44.177 17.673 44.1409C17.4923 44.0987 17.3177 44.0566 17.143 44.0084C15.975 43.711 14.8346 43.314 13.7343 42.822C13.6079 42.7678 13.4814 42.7076 13.361 42.6534C13.2707 42.6112 13.1863 42.5751 13.108 42.5329C12.8129 42.3944 12.5239 42.2439 12.2408 42.0933C11.9156 41.9187 11.5964 41.738 11.2833 41.5453C11.0845 41.4248 10.8858 41.2984 10.6931 41.1719C10.4944 41.0454 10.3016 40.9189 10.115 40.7865C9.92223 40.6539 9.73554 40.5215 9.54885 40.3829C9.36216 40.2444 9.17546 40.0999 8.99476 39.9554C8.8141 39.8109 8.63947 39.6663 8.45881 39.5157C8.30825 39.3893 8.16368 39.2628 8.01312 39.1303C7.81442 38.9556 7.61566 38.775 7.42897 38.5883C7.26033 38.4317 7.09776 38.2691 6.93514 38.1005C6.60995 37.7693 6.29677 37.432 5.99565 37.0827C5.84509 36.9081 5.69454 36.7274 5.55001 36.5467C5.40548 36.3661 5.26094 36.1854 5.12241 36.0047C4.69289 35.4438 4.29287 34.8608 3.92396 34.2582C3.80953 34.0716 3.69511 33.8788 3.58069 33.6861C3.46626 33.4874 3.35183 33.2826 3.24343 33.0779C3.15312 32.9032 3.06277 32.7346 2.97242 32.5599C2.4256 31.4604 1.96843 30.3184 1.60538 29.1453C1.54513 28.9405 1.48492 28.7358 1.43071 28.525C1.36447 28.2841 1.30426 28.0432 1.24402 27.7963C1.19587 27.5855 1.14767 27.3687 1.09948 27.1519C1.05985 26.9471 1.02022 26.7351 0.9806 26.5318L0.922073 26.1871C0.864879 25.7867 0.806466 25.3796 0.768263 24.9657C0.750179 24.7851 0.732133 24.5984 0.720075 24.4117C0.702028 24.2431 0.695997 24.0684 0.689971 23.8998C0.677915 23.7372 0.671923 23.5686 0.665895 23.406C0.659867 23.1772 0.653839 22.9483 0.653839 22.7194C0.653839 22.34 0.665898 21.9606 0.683943 21.5872C0.689976 21.4005 0.702021 21.2138 0.720075 21.0272C0.732133 20.8405 0.750175 20.6538 0.768263 20.4731C0.786312 20.2683 0.810399 20.0636 0.840527 19.8588C0.858611 19.6962 0.882688 19.5336 0.906763 19.371C0.936868 19.1903 0.966983 19.0097 0.997111 18.829C1.0453 18.564 1.09345 18.299 1.1537 18.0401C1.1838 17.8895 1.21994 17.739 1.25608 17.5944C1.31029 17.3716 1.36448 17.1488 1.42472 16.932C1.45482 16.8296 1.48492 16.7212 1.51503 16.6128C1.93202 15.1682 2.49499 13.7698 3.19524 12.4393C3.36655 12.1253 3.54628 11.8113 3.72445 11.5073C4.25239 10.605 4.85044 9.74548 5.51307 8.93684C5.62966 8.79477 5.74647 8.64288 5.86318 8.50669C6.82663 7.37555 7.89982 6.34269 9.06703 5.42326C9.18145 5.33295 9.30191 5.24259 9.42237 5.15224C9.63314 4.98966 9.84997 4.83307 10.0668 4.68251C10.2715 4.53798 10.4763 4.39944 10.687 4.26696C10.7232 4.24289 10.7653 4.21276 10.8075 4.18867C11.0665 4.02007 11.3314 3.85746 11.6025 3.70086C11.6326 3.68281 11.6627 3.66473 11.6928 3.64663C11.9337 3.50813 12.1746 3.37568 12.4215 3.24919C12.7527 3.07456 13.096 2.90591 13.4393 2.74932C13.6501 2.65298 13.8608 2.55661 14.0776 2.4663C14.168 2.43016 14.2523 2.39403 14.3426 2.35789C14.6197 2.24346 14.9027 2.13507 15.1858 2.03266C15.2038 2.02667 15.2159 2.02063 15.2339 2.0146C15.517 1.91224 15.8061 1.81589 16.1012 1.72555C16.1161 1.71802 16.1326 1.7139 16.1493 1.71349C16.4625 1.61112 16.7817 1.52679 17.1009 1.44247C17.1147 1.43765 17.1287 1.43363 17.143 1.43042C17.4622 1.34613 17.7874 1.27387 18.1066 1.2076C18.4438 1.13533 18.7751 1.07511 19.1123 1.0209C19.1989 1.00723 19.2852 0.993989 19.3712 0.981149C19.8542 0.906089 20.348 1.00985 20.76 1.27299C23.4136 2.99796 25.6646 5.27406 27.3602 7.94655C27.4366 8.06542 27.4842 8.2005 27.4991 8.34103C27.5141 8.48156 27.496 8.62363 27.4464 8.75593C27.3967 8.88824 27.3168 9.00713 27.213 9.10308C27.1093 9.19904 26.9846 9.26943 26.8488 9.30864C23.2733 10.3093 20.0431 12.2768 17.5135 14.9947C14.9839 17.7125 13.253 21.0755 12.5112 24.7135C11.7693 28.3515 12.0453 32.1237 13.3088 35.615C14.5722 39.1063 16.7742 42.1815 19.6724 44.5023Z" fill="#15C0E8"/>
<path d="M24.3276 0.882385C24.8214 0.948623 25.3152 1.03294 25.8031 1.12929C25.9777 1.16542 26.1524 1.20757 26.327 1.24371C26.5077 1.28587 26.6823 1.32804 26.857 1.37623C28.025 1.67368 29.1654 2.0706 30.2656 2.56261C30.3921 2.61683 30.5186 2.67704 30.639 2.73125C30.7293 2.77342 30.8137 2.80956 30.892 2.85172C31.187 2.99022 31.4761 3.14077 31.7592 3.29133C32.0844 3.46597 32.4036 3.64667 32.7167 3.83935C32.9154 3.9598 33.1142 4.08628 33.3069 4.21273C33.5056 4.33921 33.6983 4.46568 33.885 4.59816C34.0778 4.73067 34.2645 4.86316 34.4511 5.0017C34.6378 5.1402 34.8245 5.28473 35.0052 5.42926C35.1859 5.57379 35.3605 5.71831 35.5412 5.86887C35.6917 5.99535 35.8363 6.12183 35.9869 6.2543C36.1856 6.42897 36.3843 6.60964 36.571 6.79632C36.7397 6.9529 36.9022 7.11548 37.0648 7.28413C37.39 7.61535 37.7032 7.95259 38.0043 8.3019C38.1549 8.47654 38.3055 8.65721 38.45 8.83791C38.5945 9.01858 38.739 9.19924 38.8776 9.37991C39.3071 9.94088 39.7071 10.5238 40.076 11.1264C40.1905 11.3131 40.3049 11.5058 40.4193 11.6985C40.5337 11.8972 40.6482 12.102 40.7566 12.3068C40.8469 12.4814 40.9372 12.65 41.0276 12.8247C41.5744 13.9243 42.0316 15.0662 42.3946 16.2393C42.4549 16.4441 42.5151 16.6489 42.5693 16.8596C42.6355 17.1005 42.6957 17.3414 42.756 17.5883C42.8041 17.7992 42.8523 18.0159 42.9005 18.2327C42.9401 18.4375 42.9798 18.6496 43.0194 18.8529L43.0779 19.1976C43.1351 19.5979 43.1935 20.005 43.2317 20.4189C43.2498 20.5995 43.2679 20.7862 43.2799 20.9729C43.298 21.1416 43.304 21.3162 43.31 21.4848C43.3221 21.6474 43.3281 21.8161 43.3341 21.9786C43.3401 22.2075 43.3462 22.4363 43.3462 22.6652C43.3462 23.0446 43.3341 23.424 43.316 23.7974C43.31 23.9841 43.298 24.1708 43.2799 24.3575C43.2679 24.5442 43.2498 24.7309 43.2317 24.9116C43.2137 25.1163 43.1896 25.321 43.1595 25.5258C43.1414 25.6884 43.1173 25.851 43.0932 26.0136C43.0631 26.1943 43.033 26.3749 43.0029 26.5556C42.9547 26.8206 42.9065 27.0856 42.8463 27.3445C42.8162 27.4951 42.78 27.6457 42.7439 27.7902C42.6897 28.013 42.6355 28.2358 42.5753 28.4526C42.5452 28.555 42.5151 28.6634 42.485 28.7718C42.068 30.2164 41.505 31.6148 40.8047 32.9453C40.6334 33.2593 40.4537 33.5733 40.2755 33.8773C39.7476 34.7797 39.1496 35.6391 38.4869 36.4478C38.3703 36.5898 38.2535 36.7417 38.1368 36.8779C37.1734 38.0091 36.1002 39.0419 34.933 39.9614C34.8185 40.0517 34.6981 40.142 34.5776 40.2324C34.3669 40.395 34.15 40.5515 33.9332 40.7021C33.7285 40.8466 33.5237 40.9852 33.3129 41.1176C33.2768 41.1417 33.2346 41.1719 33.1925 41.1959C32.9335 41.3645 32.6686 41.5272 32.3975 41.6838C32.3674 41.7018 32.3373 41.7199 32.3072 41.738C32.0663 41.8765 31.8254 42.0089 31.5785 42.1354C31.2473 42.3101 30.904 42.4787 30.5607 42.6353C30.3499 42.7316 30.1392 42.828 29.9224 42.9183C29.832 42.9544 29.7477 42.9906 29.6574 43.0267C29.3803 43.1412 29.0973 43.2496 28.8142 43.352C28.7962 43.358 28.7841 43.364 28.766 43.37C28.483 43.4724 28.1939 43.5687 27.8988 43.6591C27.8839 43.6666 27.8674 43.6707 27.8507 43.6711C27.5375 43.7735 27.2183 43.8578 26.8991 43.9421C26.8853 43.947 26.8712 43.951 26.857 43.9542C26.5378 44.0385 26.2126 44.1107 25.8934 44.177C25.5562 44.2493 25.2249 44.3095 24.8877 44.3637C24.8011 44.3774 24.7148 44.3906 24.6288 44.4035C24.1458 44.4785 23.652 44.3748 23.24 44.1116C20.5864 42.3867 18.3354 40.1106 16.6398 37.4381C16.5634 37.3192 16.5158 37.1841 16.5008 37.0436C16.4859 36.9031 16.5039 36.761 16.5536 36.6287C16.6033 36.4964 16.6832 36.3775 16.7869 36.2815C16.8907 36.1856 17.0154 36.1152 17.1512 36.076C20.7267 35.0753 23.9569 33.1078 26.4865 30.3899C29.0161 27.6721 30.747 24.3091 31.4888 20.6711C32.2307 17.0331 31.9547 13.2609 30.6912 9.76961C29.4278 6.2783 27.2258 3.20313 24.3276 0.882385Z" fill="#1C00B4"/>
</svg>
