<svg width="15" height="16" viewBox="0 0 15 16" fill="none" xmlns="http://www.w3.org/2000/svg">
<path fill-rule="evenodd" clip-rule="evenodd" d="M11.4403 3.30479C10.6726 2.53707 9.42785 2.53708 8.66014 3.30481L8.2235 3.74147L8.21711 3.73508L7.44329 4.50891L7.44968 4.5153L3.15976 8.80536C2.78351 9.18162 2.57214 9.69192 2.57214 10.224V11.626C2.57214 11.7711 2.62979 11.9102 2.73241 12.0129C2.83502 12.1155 2.9742 12.1731 3.11932 12.1731L4.52123 12.1731C5.05335 12.1731 5.56367 11.9617 5.93993 11.5855L11.4403 6.0849C12.208 5.31719 12.208 4.0725 11.4403 3.30479ZM8.22351 5.28913L3.9336 9.57917C3.76258 9.7502 3.6665 9.98216 3.6665 10.224L3.6665 11.0788H4.52123C4.7631 11.0788 4.99507 10.9827 5.16609 10.8117L9.456 6.52162L8.22351 5.28913ZM10.2298 5.74778L10.6665 5.31109C11.0068 4.97075 11.0068 4.41895 10.6665 4.07862C10.3261 3.73827 9.77432 3.73827 9.43398 4.07862L8.99732 4.51529L10.2298 5.74778Z" fill="#6B7280"/>
</svg>
