<svg width="14" height="16" viewBox="0 0 14 16" fill="none" xmlns="http://www.w3.org/2000/svg">
<path d="M7.43741 14.898L7.42933 14.8993L7.38154 14.9229L7.36808 14.9255L7.35865 14.9229L7.31086 14.8986C7.30369 14.8968 7.2983 14.8982 7.29471 14.9027L7.29202 14.9094L7.28058 15.1975L7.28394 15.2109L7.29067 15.2197L7.36067 15.2695L7.37077 15.2722L7.37885 15.2695L7.44885 15.2197L7.45693 15.2089L7.45962 15.1975L7.44817 14.9101C7.44638 14.9029 7.44279 14.8988 7.43741 14.898ZM7.6151 14.8219L7.60568 14.8232L7.48183 14.8858L7.4751 14.8926L7.47308 14.9L7.48519 15.1894L7.48856 15.1975L7.49395 15.2029L7.62924 15.2648C7.63776 15.267 7.64427 15.2652 7.64876 15.2594L7.65145 15.25L7.62856 14.8367C7.62632 14.8282 7.62183 14.8232 7.6151 14.8219ZM7.13384 14.8232C7.13088 14.8214 7.12733 14.8209 7.12394 14.8216C7.12056 14.8224 7.11759 14.8244 7.11567 14.8273L7.11163 14.8367L7.08875 15.25C7.08919 15.2581 7.09301 15.2634 7.10019 15.2661L7.11028 15.2648L7.24557 15.2022L7.25231 15.1968L7.25432 15.1894L7.26644 14.9L7.26442 14.8919L7.25769 14.8852L7.13384 14.8232Z" fill="#374151"/>
<path d="M5.09044 2.91066C5.49295 1.73275 7.12048 1.69708 7.5977 2.80364L7.63809 2.91133L8.18127 4.49982C8.30576 4.86412 8.50692 5.19749 8.77119 5.47743C9.03546 5.75738 9.3567 5.9774 9.71323 6.12264L9.85929 6.17716L11.4478 6.71967C12.6257 7.12218 12.6614 8.74971 11.5555 9.22693L11.4478 9.26732L9.85929 9.8105C9.49486 9.9349 9.16137 10.136 8.8813 10.4003C8.60123 10.6646 8.38111 10.9859 8.23579 11.3425L8.18127 11.4878L7.63876 13.077C7.23625 14.2549 5.60872 14.2906 5.13217 13.1847L5.09044 13.077L4.54793 11.4885C4.42353 11.1241 4.22241 10.7906 3.95813 10.5105C3.69386 10.2305 3.37258 10.0103 3.01598 9.86502L2.87059 9.8105L1.2821 9.26799C0.103521 8.86548 0.0678473 7.23795 1.17441 6.7614L1.2821 6.71967L2.87059 6.17716C3.23489 6.05268 3.56826 5.85152 3.84821 5.58725C4.12815 5.32298 4.34817 5.00174 4.49341 4.64521L4.54793 4.49982L5.09044 2.91066ZM11.7493 0.589844C11.8752 0.589844 11.9986 0.625166 12.1055 0.691798C12.2123 0.758429 12.2984 0.853697 12.3538 0.966774L12.3861 1.04553L12.6216 1.73612L13.3129 1.9717C13.4391 2.01457 13.5497 2.09394 13.6308 2.19975C13.7118 2.30556 13.7596 2.43305 13.7681 2.56605C13.7766 2.69905 13.7454 2.83159 13.6785 2.94686C13.6116 3.06213 13.512 3.15495 13.3923 3.21355L13.3129 3.24586L12.6223 3.48144L12.3867 4.1727C12.3438 4.29886 12.2644 4.40943 12.1585 4.49039C12.0527 4.57136 11.9252 4.61909 11.7922 4.62752C11.6592 4.63596 11.5266 4.60472 11.4114 4.53777C11.2962 4.47082 11.2034 4.37117 11.1449 4.25145L11.1126 4.1727L10.877 3.48211L10.1857 3.24653C10.0595 3.20366 9.94892 3.12429 9.86788 3.01848C9.78685 2.91267 9.73905 2.78518 9.73054 2.65218C9.72203 2.51917 9.7532 2.38664 9.8201 2.27137C9.887 2.15609 9.98661 2.06328 10.1063 2.00468L10.1857 1.97237L10.8763 1.73679L11.1119 1.04553C11.1573 0.91254 11.2432 0.797094 11.3575 0.715374C11.4718 0.633655 11.6088 0.589759 11.7493 0.589844Z" fill="#374151"/>
</svg>
