<svg width="20" height="21" viewBox="0 0 20 21" fill="none" xmlns="http://www.w3.org/2000/svg">
<path d="M12.273 2.19922C13.6691 2.19922 14.3672 2.19922 14.9008 2.48178C15.3739 2.73398 15.7552 3.12927 15.9903 3.61118C16.262 4.16383 16.262 4.88768 16.262 6.33621V14.6833C16.262 16.1319 16.262 16.8557 15.9903 17.4092C15.7552 17.8911 15.3739 18.2864 14.9008 18.5386C14.3672 18.8203 13.6691 18.8203 12.273 18.8203H7.78527C6.38909 18.8203 5.69101 18.8203 5.15747 18.5378C4.68432 18.2856 4.30299 17.8903 4.06796 17.4084C3.7962 16.8557 3.7962 16.1319 3.7962 14.6833V6.33621C3.7962 4.88768 3.7962 4.16383 4.06796 3.61035C4.30313 3.12875 4.68445 2.73376 5.15747 2.48178C5.69101 2.19922 6.38909 2.19922 7.78527 2.19922H12.273Z" stroke="#6B7280" stroke-width="1.5" stroke-linecap="round" stroke-linejoin="round"/>
<path d="M7.95139 17.9893V13.4185C7.95139 12.9776 8.1265 12.5549 8.43821 12.2432C8.74991 11.9315 9.17268 11.7563 9.61349 11.7563H10.4445C10.8854 11.7563 11.3081 11.9315 11.6198 12.2432C11.9315 12.5549 12.1067 12.9776 12.1067 13.4185V17.9893M8.36691 5.52344H6.7048M8.36691 8.84766H6.7048M13.3532 5.52344H11.6911M13.3532 8.84766H11.6911" stroke="#6B7280" stroke-width="1.5" stroke-linecap="round" stroke-linejoin="round"/>
</svg>
