<svg width="22" height="21" viewBox="0 0 22 21" fill="none" xmlns="http://www.w3.org/2000/svg">
<g clip-path="url(#clip0_451_2264)">
<path fill-rule="evenodd" clip-rule="evenodd" d="M9.92494 4.08372L3.74054 10.2668C3.50378 10.5037 3.37014 10.8244 3.36871 11.1593C3.36728 11.4942 3.49818 11.816 3.73292 12.0549L9.28237 17.7059C9.51849 17.946 9.8403 18.0825 10.177 18.0854C10.5138 18.0882 10.8379 17.9572 11.078 17.7211L17.3767 11.5393C17.5574 11.3621 17.7011 11.1507 17.7992 10.9174C17.8973 10.6841 17.9479 10.4336 17.9482 10.1805V4.79486C17.9482 4.45806 17.8144 4.13506 17.5762 3.89691C17.3381 3.65876 17.0151 3.52496 16.6783 3.52496H11.2723C11.022 3.52502 10.7742 3.57439 10.543 3.67027C10.3118 3.76614 10.1018 3.90663 9.92494 4.08372ZM18.7126 12.8993C19.0738 12.5447 19.3607 12.1215 19.5565 11.6547C19.7523 11.1879 19.8531 10.6867 19.853 10.1805V4.79486C19.853 3.95287 19.5185 3.14536 18.9231 2.54998C18.3278 1.9546 17.5203 1.62012 16.6783 1.62012H11.2723C10.7718 1.62006 10.2763 1.71861 9.81388 1.91014C9.35151 2.10166 8.93141 2.38242 8.57758 2.73636L2.39318 8.92076C1.80165 9.51275 1.4678 10.3144 1.46423 11.1512C1.46066 11.9881 1.78767 12.7925 2.37413 13.3895L7.92358 19.0406C8.51353 19.6412 9.31787 19.9828 10.1597 19.9905C11.0016 19.9981 11.8119 19.671 12.4127 19.0812L18.7126 12.8993ZM13.9886 6.13841C13.5881 5.87998 13.1345 5.71504 12.6616 5.65585C12.287 5.61227 11.9074 5.65483 11.5517 5.78028C11.1961 5.90572 10.8738 6.11074 10.6094 6.37969C9.92367 7.06544 9.89827 7.94167 10.0545 8.6236C10.2056 9.29157 10.5548 9.93033 10.8634 10.4142C11.1859 10.9221 11.4475 11.3437 11.5606 11.726C11.6533 12.0422 11.6063 12.173 11.4691 12.3101C11.3777 12.4015 11.238 12.4676 10.9396 12.3939C10.6183 12.3127 10.217 12.0803 9.85383 11.7171C9.55252 11.4097 9.3458 11.0223 9.25824 10.6008C9.17062 10.183 9.22904 9.87699 9.30142 9.7373C9.36211 9.62616 9.40002 9.50403 9.41295 9.37806C9.42587 9.25209 9.41355 9.1248 9.37669 9.00365C9.33983 8.8825 9.27919 8.76992 9.1983 8.67248C9.11741 8.57505 9.0179 8.49473 8.9056 8.43621C8.7933 8.3777 8.67045 8.34217 8.54426 8.33169C8.41806 8.32122 8.29104 8.33602 8.17063 8.37523C8.05022 8.41443 7.93883 8.47726 7.84299 8.56003C7.74715 8.64279 7.66878 8.74384 7.61246 8.85726C7.27847 9.49983 7.24546 10.2859 7.39404 10.9932C7.48293 11.4148 7.64294 11.8441 7.87914 12.2479L7.55785 12.5679C7.38427 12.7475 7.28816 12.988 7.29021 13.2377C7.29226 13.4874 7.39232 13.7264 7.56882 13.903C7.74533 14.0797 7.98416 14.18 8.23388 14.1823C8.4836 14.1846 8.72423 14.0887 8.90394 13.9153L9.18586 13.6346C9.57617 13.9141 10.0143 14.1198 10.4786 14.2416C11.2406 14.4321 12.1308 14.342 12.8152 13.6575C13.5924 12.8803 13.6102 11.9482 13.388 11.1901C13.1937 10.5272 12.7886 9.89223 12.5066 9.4503L12.4698 9.39189C12.1993 8.96774 11.9898 8.54868 11.9111 8.202C11.8349 7.87055 11.9085 7.77404 11.9568 7.72705C12.0193 7.65953 12.0972 7.6081 12.1839 7.57714C12.2706 7.54619 12.3634 7.53663 12.4546 7.54927C12.673 7.57467 13.0197 7.70928 13.4413 8.12961C13.8604 8.54868 14.0089 8.89155 14.0534 9.13283C14.0951 9.3535 14.0653 9.58175 13.9683 9.78429C13.9118 9.89841 13.8787 10.0227 13.871 10.1498C13.8634 10.277 13.8813 10.4043 13.9238 10.5244C13.9662 10.6445 14.0323 10.7549 14.1181 10.8489C14.204 10.943 14.3078 11.0189 14.4235 11.0722C14.5392 11.1255 14.6644 11.155 14.7916 11.159C14.9189 11.163 15.0458 11.1415 15.1646 11.0956C15.2834 11.0498 15.3918 10.9806 15.4834 10.8921C15.575 10.8036 15.648 10.6977 15.6979 10.5805C15.9265 10.0827 16.0547 9.46427 15.9252 8.77726C15.8311 8.30374 15.6381 7.85542 15.3588 7.46165L15.6395 7.181C15.7331 7.0938 15.8081 6.98866 15.8602 6.87183C15.9122 6.755 15.9402 6.62888 15.9425 6.501C15.9447 6.37311 15.9212 6.24609 15.8733 6.12749C15.8254 6.0089 15.7541 5.90117 15.6637 5.81073C15.5732 5.72029 15.4655 5.64899 15.3469 5.60109C15.2283 5.55319 15.1013 5.52966 14.9734 5.53192C14.8455 5.53418 14.7194 5.56217 14.6026 5.61422C14.4857 5.66628 14.3806 5.74133 14.2934 5.83491L13.9886 6.13841Z" fill="#6B7280" stroke="white" stroke-width="0.3"/>
</g>
<defs>
<clipPath id="clip0_451_2264">
<rect width="20.3184" height="20.3184" fill="white" transform="translate(0.804443 0.350586)"/>
</clipPath>
</defs>
</svg>
