<svg width="24" height="24" viewBox="0 0 24 24" fill="none" xmlns="http://www.w3.org/2000/svg">
<path fill-rule="evenodd" clip-rule="evenodd" d="M12.1612 4.77728L12.2179 4.77734L12.2745 4.77728C12.4889 4.77696 12.7119 4.77662 12.9147 4.81695C13.7326 4.97965 14.372 5.61903 14.5347 6.43695C14.575 6.6397 14.5747 6.86275 14.5743 7.07708V17.7943C14.5747 18.0087 14.575 18.2317 14.5347 18.4345C14.372 19.2524 13.7326 19.8918 12.9147 20.0545C12.7119 20.0948 12.4889 20.0944 12.2745 20.0941L12.2179 20.0941L12.1612 20.0941C11.9469 20.0944 11.7238 20.0948 11.5211 20.0545C10.7031 19.8918 10.0638 19.2524 9.90107 18.4345C9.86074 18.2317 9.86107 18.0087 9.86139 17.7943L9.86145 17.7377V7.13376L9.86139 7.07708C9.86107 6.86275 9.86074 6.6397 9.90107 6.43695C10.0638 5.61903 10.7031 4.97965 11.5211 4.81695C11.7238 4.77662 11.9469 4.77696 12.1612 4.77728ZM11.8636 6.55077C11.7486 6.57459 11.6587 6.66446 11.6349 6.77945C11.6344 6.78372 11.6325 6.80129 11.6311 6.84182C11.6289 6.90585 11.6288 6.9909 11.6288 7.13376V17.7377C11.6288 17.8805 11.6289 17.9656 11.6311 18.0296C11.6325 18.0701 11.6344 18.0877 11.6349 18.092C11.6587 18.2069 11.7486 18.2968 11.8636 18.3206C11.8678 18.3212 11.8854 18.3231 11.9259 18.3244C11.99 18.3266 12.075 18.3268 12.2179 18.3268C12.3607 18.3268 12.4458 18.3266 12.5098 18.3244C12.5503 18.3231 12.5679 18.3212 12.5722 18.3206C12.6872 18.2968 12.777 18.2069 12.8009 18.092C12.8014 18.0877 12.8033 18.0701 12.8047 18.0296C12.8069 17.9656 12.807 17.8805 12.807 17.7377V7.13376C12.807 6.9909 12.8069 6.90585 12.8047 6.84182C12.8033 6.80129 12.8014 6.78372 12.8009 6.77945C12.777 6.66446 12.6872 6.57459 12.5722 6.55077C12.5679 6.55025 12.5503 6.54835 12.5098 6.54696C12.4458 6.54477 12.3607 6.54465 12.2179 6.54465C12.075 6.54465 11.99 6.54477 11.9259 6.54696C11.8854 6.54835 11.8678 6.55025 11.8636 6.55077Z" fill="#9CA3AF"/>
<path fill-rule="evenodd" clip-rule="evenodd" d="M6.85925 11.2574L6.91592 11.2575L6.9726 11.2574C7.18693 11.2571 7.40998 11.2568 7.61273 11.2971C8.43065 11.4598 9.07003 12.0992 9.23273 12.9171C9.27305 13.1199 9.27272 13.3429 9.2724 13.5572L9.27234 13.6139V17.7377L9.2724 17.7943C9.27272 18.0087 9.27305 18.2317 9.23273 18.4345C9.07003 19.2524 8.43065 19.8918 7.61273 20.0545C7.40997 20.0948 7.18693 20.0944 6.97259 20.0941L6.91592 20.0941L6.85925 20.0941C6.64491 20.0944 6.42187 20.0948 6.21912 20.0545C5.4012 19.8918 4.76181 19.2524 4.59912 18.4345C4.55879 18.2317 4.55912 18.0087 4.55944 17.7943V13.5572C4.55912 13.3429 4.55879 13.1199 4.59912 12.9171C4.76181 12.0992 5.4012 11.4598 6.21912 11.2971C6.42187 11.2568 6.64491 11.2571 6.85925 11.2574ZM6.56162 13.0309C6.44663 13.0547 6.35675 13.1446 6.33294 13.2596C6.33242 13.2639 6.33052 13.2814 6.32913 13.322C6.32694 13.386 6.32682 13.4711 6.32682 13.6139V17.7377C6.32682 17.8805 6.32694 17.9656 6.32913 18.0296C6.33052 18.0701 6.33242 18.0877 6.33294 18.092C6.35676 18.2069 6.44663 18.2968 6.56162 18.3206C6.56588 18.3212 6.58344 18.3231 6.62398 18.3244C6.68802 18.3266 6.77306 18.3268 6.91592 18.3268C7.05878 18.3268 7.14383 18.3266 7.20786 18.3244C7.2484 18.3231 7.26597 18.3212 7.27023 18.3206C7.38521 18.2968 7.47509 18.2069 7.4989 18.092C7.49943 18.0877 7.50133 18.0701 7.50272 18.0296C7.50491 17.9656 7.50503 17.8805 7.50503 17.7377V13.6139C7.50503 13.4711 7.50491 13.386 7.50272 13.322C7.50133 13.2814 7.49943 13.2639 7.4989 13.2596C7.47509 13.1446 7.38521 13.0547 7.27022 13.0309C7.26596 13.0304 7.24839 13.0285 7.20786 13.0271C7.14383 13.0249 7.05878 13.0248 6.91592 13.0248C6.77306 13.0248 6.68802 13.0249 6.62398 13.0271C6.58345 13.0285 6.56589 13.0304 6.56162 13.0309Z" fill="#9CA3AF"/>
<path fill-rule="evenodd" clip-rule="evenodd" d="M17.5198 7.72286L17.4631 7.72281C17.2488 7.72248 17.0258 7.72215 16.823 7.76248C16.0051 7.92518 15.3657 8.56456 15.203 9.38248C15.1627 9.58523 15.163 9.80827 15.1633 10.0226V17.7943C15.163 18.0087 15.1627 18.2317 15.203 18.4345C15.3657 19.2524 16.0051 19.8918 16.823 20.0545C17.0258 20.0948 17.2488 20.0944 17.4631 20.0941L17.5198 20.0941L17.5765 20.0941C17.7908 20.0944 18.0139 20.0948 18.2166 20.0545C19.0345 19.8918 19.6739 19.2524 19.8366 18.4345C19.877 18.2317 19.8766 18.0087 19.8763 17.7943V10.0226C19.8766 9.80827 19.877 9.58523 19.8366 9.38248C19.6739 8.56456 19.0345 7.92518 18.2166 7.76248C18.0139 7.72215 17.7908 7.72248 17.5765 7.72281L17.5198 7.72286ZM16.9368 9.72498C16.9607 9.60999 17.0505 9.52012 17.1655 9.4963C17.1698 9.49578 17.1874 9.49388 17.2279 9.49249C17.2919 9.4903 17.377 9.49018 17.5198 9.49018C17.6627 9.49018 17.7477 9.4903 17.8118 9.49249C17.8523 9.49388 17.8699 9.49578 17.8741 9.4963C17.9891 9.52012 18.079 9.60999 18.1028 9.72498C18.1033 9.72925 18.1052 9.74682 18.1066 9.78734C18.1088 9.85138 18.1089 9.93642 18.1089 10.0793V17.7377C18.1089 17.8805 18.1088 17.9656 18.1066 18.0296C18.1052 18.0701 18.1033 18.0877 18.1028 18.092C18.079 18.2069 17.9891 18.2968 17.8741 18.3206C17.8699 18.3212 17.8523 18.3231 17.8118 18.3244C17.7477 18.3266 17.6627 18.3268 17.5198 18.3268C17.377 18.3268 17.2919 18.3266 17.2279 18.3244C17.1874 18.3231 17.1698 18.3212 17.1655 18.3206C17.0505 18.2968 16.9607 18.2069 16.9368 18.092C16.9363 18.0877 16.9344 18.0701 16.933 18.0296C16.9308 17.9656 16.9307 17.8805 16.9307 17.7377V10.0793C16.9307 9.93642 16.9308 9.85138 16.933 9.78734C16.9344 9.74682 16.9363 9.72925 16.9368 9.72498L16.9364 9.72727C16.9368 9.72535 16.9368 9.72519 16.9368 9.72498Z" fill="#9CA3AF"/>
<path d="M16.9368 9.72498C16.9607 9.60999 17.0505 9.52012 17.1655 9.4963C17.1698 9.49578 17.1874 9.49388 17.2279 9.49249C17.2919 9.4903 17.377 9.49018 17.5198 9.49018C17.6627 9.49018 17.7477 9.4903 17.8118 9.49249C17.8523 9.49388 17.8699 9.49578 17.8741 9.4963C17.9891 9.52012 18.079 9.60999 18.1028 9.72498C18.1033 9.72925 18.1052 9.74682 18.1066 9.78734C18.1088 9.85138 18.1089 9.93642 18.1089 10.0793V17.7377C18.1089 17.8805 18.1088 17.9656 18.1066 18.0296C18.1052 18.0701 18.1033 18.0877 18.1028 18.092C18.079 18.2069 17.9891 18.2968 17.8741 18.3206C17.8699 18.3212 17.8523 18.3231 17.8118 18.3244C17.7477 18.3266 17.6627 18.3268 17.5198 18.3268C17.377 18.3268 17.2919 18.3266 17.2279 18.3244C17.1874 18.3231 17.1698 18.3212 17.1655 18.3206C17.0505 18.2968 16.9607 18.2069 16.9368 18.092C16.9363 18.0877 16.9344 18.0701 16.933 18.0296C16.9308 17.9656 16.9307 17.8805 16.9307 17.7377V10.0793C16.9307 9.93642 16.9308 9.85138 16.933 9.78734C16.9344 9.74682 16.9363 9.72925 16.9368 9.72498ZM16.9368 9.72498L16.9364 9.72727C16.9368 9.72535 16.9368 9.72519 16.9368 9.72498ZM12.2179 4.77734L12.1612 4.77728C11.9469 4.77696 11.7238 4.77662 11.5211 4.81695C10.7031 4.97965 10.0638 5.61903 9.90107 6.43695C9.86074 6.6397 9.86107 6.86275 9.86139 7.07708L9.86145 7.13376V17.7377L9.86139 17.7943C9.86107 18.0087 9.86074 18.2317 9.90107 18.4345C10.0638 19.2524 10.7031 19.8918 11.5211 20.0545C11.7238 20.0948 11.9469 20.0944 12.1612 20.0941L12.2179 20.0941L12.2745 20.0941C12.4889 20.0944 12.7119 20.0948 12.9147 20.0545C13.7326 19.8918 14.372 19.2524 14.5347 18.4345C14.575 18.2317 14.5747 18.0087 14.5743 17.7943V7.07708C14.5747 6.86275 14.575 6.6397 14.5347 6.43695C14.372 5.61903 13.7326 4.97965 12.9147 4.81695C12.7119 4.77662 12.4889 4.77696 12.2745 4.77728L12.2179 4.77734ZM11.6349 6.77945C11.6587 6.66446 11.7486 6.57459 11.8636 6.55077C11.8678 6.55025 11.8854 6.54835 11.9259 6.54696C11.99 6.54477 12.075 6.54465 12.2179 6.54465C12.3607 6.54465 12.4458 6.54477 12.5098 6.54696C12.5503 6.54835 12.5679 6.55025 12.5722 6.55077C12.6872 6.57459 12.777 6.66446 12.8009 6.77945C12.8014 6.78372 12.8033 6.80129 12.8047 6.84182C12.8069 6.90585 12.807 6.9909 12.807 7.13376V17.7377C12.807 17.8805 12.8069 17.9656 12.8047 18.0296C12.8033 18.0701 12.8014 18.0877 12.8009 18.092C12.777 18.2069 12.6872 18.2968 12.5722 18.3206C12.5679 18.3212 12.5503 18.3231 12.5098 18.3244C12.4458 18.3266 12.3607 18.3268 12.2179 18.3268C12.075 18.3268 11.99 18.3266 11.9259 18.3244C11.8854 18.3231 11.8678 18.3212 11.8636 18.3206C11.7486 18.2968 11.6587 18.2069 11.6349 18.092C11.6344 18.0877 11.6325 18.0701 11.6311 18.0296C11.6289 17.9656 11.6288 17.8805 11.6288 17.7377V7.13376C11.6288 6.9909 11.6289 6.90585 11.6311 6.84182C11.6325 6.80129 11.6344 6.78372 11.6349 6.77945ZM6.91592 11.2575L6.85925 11.2574C6.64491 11.2571 6.42187 11.2568 6.21912 11.2971C5.4012 11.4598 4.76181 12.0992 4.59912 12.9171C4.55879 13.1199 4.55912 13.3429 4.55944 13.5572V17.7943C4.55912 18.0087 4.55879 18.2317 4.59912 18.4345C4.76181 19.2524 5.4012 19.8918 6.21912 20.0545C6.42187 20.0948 6.64491 20.0945 6.85925 20.0941L6.91592 20.0941L6.9726 20.0941C7.18693 20.0945 7.40997 20.0948 7.61273 20.0545C8.43065 19.8918 9.07003 19.2524 9.23272 18.4345C9.27305 18.2317 9.27272 18.0087 9.2724 17.7943L9.27234 17.7377V13.6139L9.2724 13.5572C9.27272 13.3429 9.27305 13.1199 9.23272 12.9171C9.07003 12.0992 8.43065 11.4598 7.61273 11.2971C7.40998 11.2568 7.18693 11.2571 6.9726 11.2574L6.91592 11.2575ZM6.33294 13.2596C6.35675 13.1446 6.44663 13.0547 6.56162 13.0309C6.56589 13.0304 6.58345 13.0285 6.62398 13.0271C6.68802 13.0249 6.77306 13.0248 6.91592 13.0248C7.05878 13.0248 7.14383 13.0249 7.20786 13.0271C7.24839 13.0285 7.26596 13.0304 7.27022 13.0309C7.38521 13.0547 7.47509 13.1446 7.4989 13.2596C7.49943 13.2639 7.50133 13.2814 7.50272 13.322C7.50491 13.386 7.50503 13.4711 7.50503 13.6139V17.7377C7.50503 17.8805 7.50491 17.9656 7.50272 18.0296C7.50133 18.0701 7.49943 18.0877 7.4989 18.092C7.47509 18.2069 7.38521 18.2968 7.27023 18.3206C7.26597 18.3212 7.2484 18.3231 7.20786 18.3244C7.14383 18.3266 7.05878 18.3268 6.91592 18.3268C6.77306 18.3268 6.68802 18.3266 6.62398 18.3244C6.58344 18.3231 6.56588 18.3212 6.56162 18.3206C6.44663 18.2968 6.35675 18.2069 6.33294 18.092C6.33242 18.0877 6.33052 18.0701 6.32913 18.0296C6.32694 17.9656 6.32682 17.8805 6.32682 17.7377V13.6139C6.32682 13.4711 6.32694 13.386 6.32913 13.322C6.33052 13.2814 6.33242 13.2639 6.33294 13.2596ZM17.4631 7.72281L17.5198 7.72286L17.5765 7.72281C17.7908 7.72248 18.0139 7.72215 18.2166 7.76248C19.0345 7.92518 19.6739 8.56456 19.8366 9.38248C19.877 9.58523 19.8766 9.80827 19.8763 10.0226V17.7943C19.8766 18.0087 19.877 18.2317 19.8366 18.4345C19.6739 19.2524 19.0345 19.8918 18.2166 20.0545C18.0139 20.0948 17.7908 20.0944 17.5765 20.0941L17.5198 20.0941L17.4631 20.0941C17.2488 20.0944 17.0258 20.0948 16.823 20.0545C16.0051 19.8918 15.3657 19.2524 15.203 18.4345C15.1627 18.2317 15.163 18.0087 15.1633 17.7943V10.0226C15.163 9.80827 15.1627 9.58523 15.203 9.38248C15.3657 8.56456 16.0051 7.92518 16.823 7.76248C17.0258 7.72215 17.2488 7.72248 17.4631 7.72281Z" stroke="#F2F7FD" stroke-width="0.3"/>
</svg>
