<svg width="103" height="103" viewBox="0 0 103 103" fill="none" xmlns="http://www.w3.org/2000/svg">
<rect x="0.674514" y="0.655838" width="101.512" height="101.512" rx="50.756" fill="#DBEAFE" fill-opacity="0.41"/>
<rect x="0.674514" y="0.655838" width="101.512" height="101.512" rx="50.756" stroke="#F3F4F6" stroke-width="1.27231"/>
<path d="M51.5067 51.3616C48.1245 51.3616 45.2291 50.1574 42.8206 47.7488C40.412 45.3403 39.2077 42.4449 39.2077 39.0627C39.2077 35.6804 40.412 32.7851 42.8206 30.3765C45.2291 27.9679 48.1245 26.7637 51.5067 26.7637C54.8889 26.7637 57.7843 27.9679 60.1929 30.3765C62.6014 32.7851 63.8057 35.6804 63.8057 39.0627C63.8057 42.4449 62.6014 45.3403 60.1929 47.7488C57.7843 50.1574 54.8889 51.3616 51.5067 51.3616ZM26.9088 69.8101V67.3503C26.9088 65.608 27.3577 64.0071 28.2555 62.5476C29.1533 61.0881 30.3443 59.973 31.8283 59.2023C35.0056 57.6136 38.2341 56.4227 41.5138 55.6294C44.7935 54.8361 48.1245 54.4384 51.5067 54.4364C54.8889 54.4343 58.2199 54.832 61.4997 55.6294C64.7794 56.4268 68.0079 57.6177 71.1851 59.2023C72.6712 59.9709 73.8632 61.086 74.761 62.5476C75.6589 64.0091 76.1068 65.61 76.1047 67.3503V69.8101C76.1047 71.5012 75.5031 72.9494 74.2998 74.1547C73.0966 75.36 71.6484 75.9617 69.9552 75.9596H33.0582C31.3671 75.9596 29.92 75.358 28.7167 74.1547C27.5135 72.9515 26.9108 71.5033 26.9088 69.8101ZM33.0582 69.8101H69.9552V67.3503C69.9552 66.7866 69.8148 66.2742 69.534 65.813C69.2531 65.3517 68.8811 64.993 68.4178 64.7368C65.6506 63.3532 62.8577 62.3159 60.0392 61.6252C57.2206 60.9344 54.3765 60.5879 51.5067 60.5859C48.637 60.5838 45.7928 60.9303 42.9743 61.6252C40.1558 62.32 37.3629 63.3573 34.5956 64.7368C34.1344 64.993 33.7624 65.3517 33.4795 65.813C33.1966 66.2742 33.0562 66.7866 33.0582 67.3503V69.8101ZM51.5067 45.2122C53.1978 45.2122 54.646 44.6105 55.8513 43.4073C57.0566 42.204 57.6583 40.7558 57.6562 39.0627C57.6542 37.3695 57.0525 35.9223 55.8513 34.7211C54.6501 33.5199 53.2019 32.9173 51.5067 32.9132C49.8115 32.9091 48.3643 33.5117 47.1652 34.7211C45.966 35.9305 45.3634 37.3777 45.3572 39.0627C45.3511 40.7476 45.9537 42.1958 47.1652 43.4073C48.3766 44.6187 49.8238 45.2204 51.5067 45.2122Z" fill="white"/>
</svg>
