<svg width="13" height="17" viewBox="0 0 13 17" fill="none" xmlns="http://www.w3.org/2000/svg">
<path fill-rule="evenodd" clip-rule="evenodd" d="M6.05645 9.56763C7.57711 9.56763 8.80984 8.3349 8.80984 6.81424C8.80984 5.29359 7.57711 4.06085 6.05645 4.06085C4.5358 4.06085 3.30306 5.29359 3.30306 6.81424C3.30306 8.3349 4.5358 9.56763 6.05645 9.56763ZM6.05645 7.9156C6.66471 7.9156 7.15781 7.4225 7.15781 6.81424C7.15781 6.20598 6.66471 5.71289 6.05645 5.71289C5.44819 5.71289 4.9551 6.20598 4.9551 6.81424C4.9551 7.4225 5.44819 7.9156 6.05645 7.9156Z" fill="#6B7280"/>
<path fill-rule="evenodd" clip-rule="evenodd" d="M4.76407 15.0744H1.37569C0.919491 15.0744 0.549671 15.4442 0.549671 15.9004C0.549671 16.3566 0.919491 16.7264 1.37569 16.7264H10.7372C11.1934 16.7264 11.5632 16.3566 11.5632 15.9004C11.5632 15.4442 11.1934 15.0744 10.7372 15.0744H7.34884C7.3737 15.0524 7.399 15.0299 7.42472 15.0069C7.93642 14.5489 8.61964 13.887 9.3049 13.0705C10.6532 11.4639 12.1139 9.1349 12.1139 6.51324C12.1139 3.026 9.55004 0.481445 6.05645 0.481445C2.56286 0.481445 -0.00100708 3.026 -0.00100708 6.51324C-0.00100708 9.1349 1.45968 11.4639 2.80801 13.0705C3.49326 13.887 4.17648 14.5489 4.68818 15.0069C4.7139 15.0299 4.7392 15.0524 4.76407 15.0744ZM6.05645 2.13348C3.46742 2.13348 1.65103 3.9462 1.65103 6.51324C1.65103 8.54667 2.80606 10.4983 4.07346 12.0085C4.69606 12.7504 5.3207 13.3559 5.7899 13.7758C5.88597 13.8618 5.97528 13.9398 6.05645 14.0094C6.13762 13.9398 6.22693 13.8618 6.323 13.7758C6.7922 13.3559 7.41684 12.7504 8.03945 12.0085C9.30685 10.4983 10.4619 8.54667 10.4619 6.51324C10.4619 3.9462 8.64548 2.13348 6.05645 2.13348Z" fill="#6B7280"/>
</svg>
