<svg width="18" height="17" viewBox="0 0 18 17" fill="none" xmlns="http://www.w3.org/2000/svg">
<path d="M6.67089 10.733C6.16253 10.733 5.75042 11.1451 5.75042 11.6535C5.75042 12.1619 6.16253 12.574 6.67089 12.574H10.3528C10.8611 12.574 11.2732 12.1619 11.2732 11.6535C11.2732 11.1451 10.8611 10.733 10.3528 10.733H6.67089Z" fill="#6B7280"/>
<path fill-rule="evenodd" clip-rule="evenodd" d="M5.52031 1.52832C4.12231 1.52832 2.98901 2.66162 2.98901 4.05961V12.8041C2.98901 14.2021 4.12231 15.3354 5.52031 15.3354H11.5034C12.9014 15.3354 14.0347 14.2021 14.0347 12.8041V7.28126C14.0347 7.09817 13.9619 6.92257 13.8325 6.79311L8.76987 1.73052C8.6404 1.60105 8.46481 1.52832 8.28172 1.52832H5.52031ZM4.36972 4.05961C4.36972 3.42416 4.88485 2.90903 5.52031 2.90903H7.59137V6.36079C7.59137 7.25042 8.31256 7.97161 9.20219 7.97161H12.654V12.8041C12.654 13.4395 12.1388 13.9547 11.5034 13.9547H5.52031C4.88486 13.9547 4.36972 13.4395 4.36972 12.8041V4.05961ZM11.6776 6.59091L8.97207 3.88533V6.36079C8.97207 6.48788 9.0751 6.59091 9.20219 6.59091H11.6776Z" fill="#6B7280"/>
</svg>
