<svg width="56" height="56" viewBox="0 0 56 56" fill="none" xmlns="http://www.w3.org/2000/svg">
<path fill-rule="evenodd" clip-rule="evenodd" d="M27.7323 11.0078C27.3734 10.6419 26.8103 10.642 26.4514 11.008L15.9817 21.6858C15.6737 22 15.613 22.4079 15.7709 22.7965C15.9275 23.1818 16.2308 23.3938 16.6222 23.3938H21.0931L25.6656 45.2218C25.7666 45.7043 26.1665 45.9972 26.5712 45.9972H27.6112C28.0159 45.9972 28.4158 45.7043 28.5168 45.2218L33.0893 23.3938H37.5675C37.959 23.3938 38.2624 23.1818 38.4189 22.7963C38.5768 22.4077 38.516 21.9998 38.2078 21.6856L27.7323 11.0078ZM23.1671 7.78773C25.3289 5.58291 28.8533 5.5824 31.0157 7.78663L41.4912 18.4645C44.8876 21.9264 42.5741 27.9934 37.5675 27.9934H36.8252L33.0187 46.1649C32.4836 48.7193 30.2521 50.5968 27.6112 50.5968H26.5712C23.9303 50.5968 21.6988 48.7193 21.1637 46.1649L17.3572 27.9934H16.6222C11.6165 27.9934 9.30255 21.928 12.6974 18.4656L23.1671 7.78773Z" fill="#10B981"/>
<path fill-rule="evenodd" clip-rule="evenodd" d="M11.0635 32.602C12.2779 32.2298 13.5641 32.9125 13.9363 34.1269L17.9711 47.2912C18.3433 48.5056 17.6605 49.7918 16.4462 50.164C15.2318 50.5362 13.9456 49.8535 13.5734 48.6391L9.53861 35.4748C9.16641 34.2604 9.84914 32.9742 11.0635 32.602Z" fill="#10B981"/>
<path fill-rule="evenodd" clip-rule="evenodd" d="M42.9493 32.5671C44.1829 32.8696 44.9377 34.1148 44.6353 35.3484L41.4075 48.5127C41.105 49.7463 39.8597 50.5012 38.6261 50.1987C37.3925 49.8962 36.6377 48.651 36.9402 47.4174L40.168 34.2531C40.4704 33.0195 41.7157 32.2646 42.9493 32.5671Z" fill="#10B981"/>
</svg>
