<svg width="20" height="20" viewBox="0 0 20 20" fill="none" xmlns="http://www.w3.org/2000/svg">
<path d="M17.2777 7.46878C18.2693 6.47723 17.8171 5.31909 17.2777 4.75589L14.898 2.37617C13.8985 1.38462 12.7483 1.83676 12.1851 2.37617L10.8366 3.73261H8.78213C7.27497 3.73261 6.4024 4.52585 5.95819 5.43808L2.4362 8.96007V12.133L1.87299 12.6883C0.881442 13.6878 1.33359 14.838 1.87299 15.4012L4.25272 17.7809C4.68107 18.2093 5.14115 18.3679 5.57743 18.3679C6.14063 18.3679 6.65624 18.0903 6.9656 17.7809L9.10736 15.6312H11.9551C13.3036 15.6312 13.9858 14.7904 14.2317 13.9654C15.1281 13.7275 15.6199 13.0453 15.8182 12.3789C17.0477 12.0616 17.5078 10.8956 17.5078 10.0785V7.69882H17.0398L17.2777 7.46878ZM15.9213 10.0785C15.9213 10.4355 15.7706 10.8718 15.1281 10.8718H14.3348V11.665C14.3348 12.022 14.1841 12.4583 13.5416 12.4583H12.7483V13.2515C12.7483 13.6085 12.5976 14.0447 11.9551 14.0447H8.4569L5.85507 16.6466C5.60916 16.8766 5.46638 16.7418 5.37912 16.6545L3.00733 14.2907C2.77729 14.0447 2.91214 13.902 2.9994 13.8147L4.02268 12.7835V9.61053L5.60916 8.02405V9.2853C5.60916 10.2451 6.24375 11.665 7.98888 11.665C9.73402 11.665 10.3686 10.2451 10.3686 9.2853H15.9213V10.0785ZM16.1513 6.34237L14.8028 7.69882H8.78213V9.2853C8.78213 9.64226 8.63141 10.0785 7.98888 10.0785C7.34636 10.0785 7.19564 9.64226 7.19564 9.2853V6.90558C7.19564 6.54068 7.33049 5.31909 8.78213 5.31909H11.4871L13.2957 3.5105C13.5416 3.28046 13.6844 3.41531 13.7716 3.50257L16.1434 5.86643C16.3734 6.11233 16.2386 6.25512 16.1513 6.34237Z" fill="#6B7280"/>
</svg>
