<svg width="24" height="25" viewBox="0 0 24 25" fill="none" xmlns="http://www.w3.org/2000/svg">
<path d="M19 9.8379C19 12.4179 17.73 14.4029 15.798 15.7099C15.348 16.0139 15.123 16.1659 15.012 16.3399C14.902 16.5119 14.863 16.7399 14.788 17.1939L14.728 17.5469C14.596 18.3449 14.529 18.7439 14.249 18.9809C13.969 19.2179 13.565 19.2179 12.756 19.2179H10.144C9.335 19.2179 8.931 19.2179 8.651 18.9809C8.371 18.7439 8.305 18.3449 8.171 17.5469L8.113 17.1939C8.037 16.7409 8 16.5139 7.89 16.3419C7.78 16.1699 7.554 16.0159 7.103 15.7079C5.192 14.4009 4 12.4169 4 9.8379C4 5.6309 7.358 2.2179 11.5 2.2179C12.0039 2.21737 12.5065 2.2683 13 2.3699" stroke="#9CA3AF" stroke-width="1.7" stroke-linecap="round" stroke-linejoin="round"/>
<path d="M13.5 19.2179V20.2179C13.5 21.1609 13.5 21.6319 13.207 21.9249C12.914 22.2179 12.443 22.2179 11.5 22.2179C10.557 22.2179 10.086 22.2179 9.793 21.9249C9.5 21.6319 9.5 21.1609 9.5 20.2179V19.2179M16.5 2.2179L16.758 2.9149C17.096 3.8289 17.265 4.2859 17.598 4.6189C17.932 4.9529 18.389 5.1219 19.303 5.4599L20 5.7179L19.303 5.9759C18.389 6.3139 17.932 6.4829 17.599 6.8159C17.265 7.1499 17.096 7.6069 16.758 8.5209L16.5 9.2179L16.242 8.5209C15.904 7.6069 15.735 7.1499 15.402 6.8169C15.068 6.4829 14.611 6.3139 13.697 5.9759L13 5.7179L13.697 5.4599C14.611 5.1219 15.068 4.9529 15.401 4.6199C15.735 4.2859 15.904 3.8289 16.242 2.9149L16.5 2.2179Z" stroke="#9CA3AF" stroke-width="1.7" stroke-linecap="round" stroke-linejoin="round"/>
</svg>
