<svg width="24" height="24" viewBox="0 0 24 24" fill="none" xmlns="http://www.w3.org/2000/svg">
<path d="M9.51506 15.7548C8.75896 15.7548 8.14602 16.3678 8.14602 17.1239C8.14602 17.88 8.75896 18.4929 9.51506 18.4929H14.9912C15.7473 18.4929 16.3602 17.88 16.3602 17.1239C16.3602 16.3678 15.7473 15.7548 14.9912 15.7548H9.51506Z" fill="#FBFDFF"/>
<path fill-rule="evenodd" clip-rule="evenodd" d="M7.80376 2.06445C5.72449 2.06445 4.03891 3.75003 4.03891 5.8293V18.8352C4.03891 20.9144 5.72449 22.6 7.80376 22.6H16.7025C18.7818 22.6 20.4674 20.9144 20.4674 18.8352V10.6209C20.4674 10.3486 20.3592 10.0875 20.1666 9.89489L12.6369 2.36519C12.4444 2.17263 12.1832 2.06445 11.9109 2.06445H7.80376ZM6.09247 5.8293C6.09247 4.88418 6.85864 4.11801 7.80376 4.11801H10.8841V9.2519C10.8841 10.5751 11.9567 11.6477 13.2799 11.6477H18.4138V18.8352C18.4138 19.7803 17.6476 20.5465 16.7025 20.5465H7.80376C6.85864 20.5465 6.09247 19.7803 6.09247 18.8352V5.8293ZM16.9617 9.59416L12.9377 5.57009V9.2519C12.9377 9.44092 13.0909 9.59416 13.2799 9.59416H16.9617Z" fill="#FBFDFF"/>
</svg>
