<svg width="16" height="16" viewBox="0 0 16 16" fill="none" xmlns="http://www.w3.org/2000/svg">
<path d="M9.03104 1.25838C9.03104 0.793155 8.6539 0.416016 8.18867 0.416016C7.72345 0.416016 7.34631 0.793155 7.34631 1.25838V8.77152L5.41486 6.84007C5.08589 6.51111 4.55254 6.51111 4.22357 6.84007C3.89461 7.16904 3.89461 7.70239 4.22357 8.03136L7.59303 11.4008C7.92199 11.7298 8.45535 11.7298 8.78431 11.4008L12.1538 8.03136C12.4827 7.70239 12.4827 7.16904 12.1538 6.84007C11.8248 6.51111 11.2914 6.51111 10.9625 6.84007L9.03104 8.77152L9.03104 1.25838Z" fill="#9CA3AF"/>
<path d="M15.4892 11.9283C15.4892 11.4631 15.112 11.086 14.6468 11.086C14.1816 11.086 13.8044 11.4631 13.8044 11.9283V12.8268C13.8044 13.2921 13.4273 13.6692 12.9621 13.6692L3.41528 13.6692C2.95005 13.6692 2.57291 13.2921 2.57291 12.8268L2.57291 11.9283C2.57291 11.4631 2.19577 11.086 1.73055 11.086C1.26532 11.086 0.888184 11.4631 0.888184 11.9283V12.8268C0.888184 14.2225 2.0196 15.3539 3.41528 15.3539L12.9621 15.3539C14.3577 15.3539 15.4892 14.2225 15.4892 12.8268V11.9283Z" fill="#9CA3AF"/>
</svg>
