<svg width="17" height="17" viewBox="0 0 17 17" fill="none" xmlns="http://www.w3.org/2000/svg">
<path fill-rule="evenodd" clip-rule="evenodd" d="M8.21301 14.2188C7.84941 14.2188 7.55465 13.924 7.55465 13.5604L7.55465 5.05476L5.16732 7.44233C4.91023 7.69945 4.49338 7.69947 4.23626 7.44238C3.97915 7.18529 3.97913 6.76844 4.23622 6.51132L7.74745 2.99973C7.87092 2.87625 8.03839 2.80688 8.213 2.80688C8.38762 2.80688 8.55509 2.87625 8.67856 2.99973L12.1898 6.51132C12.4469 6.76844 12.4469 7.18529 12.1897 7.44238C11.9326 7.69947 11.5158 7.69945 11.2587 7.44233L8.87136 5.05476L8.87136 13.5604C8.87136 13.924 8.57661 14.2188 8.21301 14.2188Z" fill="#10B981"/>
</svg>
