<svg width="43" height="43" viewBox="0 0 43 43" fill="none" xmlns="http://www.w3.org/2000/svg">
<path fill-rule="evenodd" clip-rule="evenodd" d="M18.6619 3.57141C19.686 3.57141 20.6925 3.67383 21.6619 3.87159C22.1209 3.96479 22.524 4.23647 22.7826 4.62689C23.0412 5.01731 23.1342 5.49447 23.041 5.95341C22.9478 6.41235 22.6761 6.81547 22.2857 7.0741C21.8952 7.33272 21.4181 7.42566 20.9591 7.33246C18.7352 6.87878 16.4266 7.0947 14.3253 7.95292C12.224 8.81115 10.4244 10.2732 9.15395 12.1541C7.8835 14.035 7.19928 16.2504 7.18779 18.5201C7.17631 20.7899 7.83807 23.0121 9.08942 24.9058C10.3408 26.7995 12.1255 28.2796 14.218 29.1591C16.3105 30.0385 18.6167 30.2778 20.8452 29.8466C23.0737 29.4155 25.1243 28.3333 26.7377 26.7368C28.3512 25.1403 29.455 23.1013 29.9097 20.8775C29.9559 20.6503 30.0463 20.4344 30.1759 20.2421C30.3055 20.0498 30.4717 19.8849 30.665 19.7569C30.8584 19.6288 31.075 19.5401 31.3026 19.4957C31.5302 19.4514 31.7643 19.4523 31.9916 19.4985C32.2188 19.5446 32.4347 19.6351 32.627 19.7647C32.8193 19.8943 32.9842 20.0605 33.1122 20.2538C33.2403 20.4471 33.329 20.6637 33.3734 20.8914C33.4177 21.119 33.4167 21.3531 33.3706 21.5803C32.9405 23.6862 32.0632 25.6751 30.7979 27.4126L30.4501 27.8717L36.8986 34.3202C37.2186 34.6372 37.4054 35.0646 37.4207 35.5148C37.436 35.965 37.2786 36.4041 36.9807 36.7421C36.6829 37.0801 36.2672 37.2914 35.8186 37.3329C35.37 37.3744 34.9226 37.2429 34.5678 36.9653L34.4018 36.817L27.9533 30.3685C26.0735 31.8498 23.8668 32.8602 21.5172 33.3153C19.1675 33.7704 16.7431 33.657 14.4462 32.9846C12.1493 32.3121 10.0465 31.1002 8.31325 29.4498C6.58001 27.7994 5.26658 25.7584 4.48253 23.4972C3.69849 21.2359 3.46657 18.82 3.80613 16.4509C4.14568 14.0818 5.04687 11.8282 6.43449 9.87824C7.82212 7.92826 9.65595 6.33839 11.783 5.24127C13.91 4.14416 16.2686 3.57162 18.6619 3.57141ZM33.6708 1.80566C34.0011 1.80566 34.3248 1.89833 34.6051 2.07312C34.8854 2.24792 35.1111 2.49784 35.2564 2.79448L35.3412 3.00108L35.5707 3.66853C35.813 4.37869 36.2034 5.02927 36.716 5.57721C37.2286 6.12514 37.8518 6.55792 38.5443 6.84688L38.8709 6.97048L39.5384 7.19827C39.8689 7.31103 40.1586 7.51928 40.3708 7.79667C40.5829 8.07407 40.7081 8.40815 40.7304 8.75668C40.7527 9.1052 40.6711 9.45251 40.496 9.75469C40.321 10.0569 40.0602 10.3003 39.7467 10.4543L39.5384 10.5391L38.8709 10.7686C38.1608 11.0109 37.5102 11.4012 36.9622 11.9139C36.4143 12.4265 35.9815 13.0497 35.6926 13.7421L35.569 14.0688L35.3412 14.7363C35.2282 15.0667 35.0198 15.3562 34.7423 15.5682C34.4648 15.7802 34.1307 15.9052 33.7822 15.9273C33.4337 15.9494 33.0864 15.8677 32.7844 15.6924C32.4823 15.5172 32.239 15.2564 32.0851 14.9428L32.0004 14.7363L31.7708 14.0688C31.5286 13.3586 31.1382 12.7081 30.6256 12.1601C30.113 11.6122 29.4898 11.1794 28.7973 10.8905L28.4706 10.7668L27.8032 10.5391C27.4727 10.4263 27.183 10.2181 26.9708 9.94066C26.7586 9.66327 26.6335 9.32918 26.6112 8.98066C26.5889 8.63213 26.6704 8.28482 26.8455 7.98264C27.0206 7.68047 27.2814 7.437 27.5948 7.28302L27.8032 7.19827L28.4706 6.96872C29.1808 6.72646 29.8314 6.33609 30.3793 5.82347C30.9273 5.31084 31.36 4.68766 31.649 3.99519L31.7726 3.66853L32.0004 3.00108C32.1194 2.6525 32.3443 2.34984 32.6439 2.13549C32.9434 1.92113 33.3025 1.80581 33.6708 1.80566ZM33.6708 7.449C33.2531 7.97467 32.7768 8.45097 32.2511 8.86867C32.7785 9.28656 33.2517 9.75978 33.6708 10.2883C34.0887 9.76096 34.5619 9.28774 35.0904 8.86867C34.5648 8.45097 34.0885 7.97467 33.6708 7.449Z" fill="url(#paint0_linear_457_2637)"/>
<defs>
<linearGradient id="paint0_linear_457_2637" x1="4.99327" y1="8.61082" x2="40.7946" y2="41.4287" gradientUnits="userSpaceOnUse">
<stop stop-color="#396BEC"/>
<stop offset="1" stop-color="#A9C1FF"/>
</linearGradient>
</defs>
</svg>
