<svg width="21" height="21" viewBox="0 0 21 21" fill="none" xmlns="http://www.w3.org/2000/svg">
<path d="M15.8581 2.59277H4.21479C3.77364 2.59277 3.35057 2.76802 3.03863 3.07995C2.7267 3.39189 2.55145 3.81496 2.55145 4.25611V15.8994C2.55145 16.3406 2.7267 16.7637 3.03863 17.0756C3.35057 17.3875 3.77364 17.5628 4.21479 17.5628H15.8581C16.2993 17.5628 16.7223 17.3875 17.0343 17.0756C17.3462 16.7637 17.5215 16.3406 17.5215 15.8994V4.25611C17.5215 3.81496 17.3462 3.39189 17.0343 3.07995C16.7223 2.76802 16.2993 2.59277 15.8581 2.59277ZM15.8581 15.8994H4.21479V4.25611H15.8581V15.8994ZM7.54145 14.2361H5.87812V10.0778H7.54145V14.2361ZM10.8681 14.2361H9.20479V8.41444H10.8681V14.2361ZM14.1948 14.2361H12.5315V5.91944H14.1948V14.2361Z" fill="#6B7280"/>
</svg>
