<svg width="16" height="16" viewBox="0 0 16 16" fill="none" xmlns="http://www.w3.org/2000/svg">
<path d="M8.56287 6.1545C8.86507 6.1545 9.11005 6.39948 9.11005 6.70167V9.80234C9.11005 10.1045 8.86507 10.3495 8.56287 10.3495C8.26068 10.3495 8.0157 10.1045 8.0157 9.80234V6.70167C8.0157 6.39948 8.26068 6.1545 8.56287 6.1545Z" fill="#6B7280"/>
<path d="M6.92134 6.70167C6.92134 6.39948 6.67636 6.1545 6.37417 6.1545C6.07197 6.1545 5.82699 6.39948 5.82699 6.70167V9.80234C5.82699 10.1045 6.07197 10.3495 6.37417 10.3495C6.67636 10.3495 6.92134 10.1045 6.92134 9.80234V6.70167Z" fill="#6B7280"/>
<path fill-rule="evenodd" clip-rule="evenodd" d="M5.46216 3.96579C5.46216 2.85773 6.36042 1.95947 7.46848 1.95947C8.57653 1.95947 9.47479 2.85773 9.47479 3.96579H11.6635C11.9657 3.96579 12.2107 4.21077 12.2107 4.51297C12.2107 4.81516 11.9657 5.06014 11.6635 5.06014H11.1163L11.1162 9.03637C11.1162 10.2621 11.1162 10.875 10.8776 11.3432C10.6678 11.755 10.3329 12.0898 9.92111 12.2997C9.45292 12.5382 8.84003 12.5382 7.61425 12.5382H7.3226C6.09677 12.5382 5.48386 12.5382 5.01566 12.2997C4.60382 12.0898 4.26898 11.755 4.05914 11.3431C3.82059 10.8749 3.8206 10.262 3.82063 9.03622L3.82071 5.06014H3.2735C2.9713 5.06014 2.72632 4.81516 2.72632 4.51297C2.72632 4.21077 2.9713 3.96579 3.2735 3.96579H5.46216ZM6.55651 3.96579C6.55651 3.46213 6.96481 3.05383 7.46848 3.05383C7.97214 3.05383 8.38044 3.46213 8.38044 3.96579H6.55651ZM4.91508 5.06014H10.0219L10.0219 9.03635C10.0218 9.66729 10.021 10.0747 9.99564 10.3847C9.97134 10.682 9.93011 10.7923 9.90254 10.8464C9.79762 11.0523 9.6302 11.2197 9.42428 11.3246C9.37018 11.3522 9.25995 11.3934 8.96266 11.4177C8.65259 11.443 8.2452 11.4439 7.61425 11.4439H7.3226C6.69162 11.4439 6.28421 11.443 5.97413 11.4177C5.67683 11.3934 5.5666 11.3522 5.51249 11.3246C5.30657 11.2197 5.13916 11.0523 5.03424 10.8463C5.00667 10.7922 4.96544 10.682 4.94115 10.3847C4.91582 10.0746 4.91498 9.66721 4.91499 9.03625L4.91508 5.06014Z" fill="#6B7280"/>
</svg>
